<svg xmlns="http://www.w3.org/2000/svg" width="512" height="512" style="" viewBox="0 0 512 512" data-svgdocument="" id="_eg90l3bab_1" class="fl-svgdocument" x="0" y="0" data-bbox="11.234761575479638 109.64402019607832 493.3195029546521 332.00389541737206" fill="rgb(255, 213, 128)">
  <g transform="matrix(1.8350434303283691, 0.002577792853116989, -0.002577792853116989, 1.8350434303283691, -215.6173858642578, -174.9091033935547)">
    <g fill="rgba(230, 171, 146, 1)">
      <path fill="rgba(230, 171, 146, 1)" d="M32 7V32L49.68 49.68A25 25 0 0 0 32 7Z" transform="matrix(-3.014084815979004, -1.2219048738479614, 1.2219048738479614, -3.014084815979004, 301.5788879394531, 374.2667541503906)" />
      <path fill="rgba(230, 171, 146, 1)" d="M32 7V32L49.68 49.68A25 25 0 0 0 32 7Z" transform="matrix(3.0145609378814697, 1.2207295894622803, -1.2207295894622803, 3.0145609378814697, 211.56057739257812, 102.70658111572266)" />
    </g>
    <g fill="rgb(255, 213, 128)" transform="matrix(1, 0, 0, 1, 0, 0)">
      <g fill="#ffffff" stroke="#ffffff" stroke-width="2">
        <path class="cls-1" d="M46.5 56C37.953 56 31 45.233 31 32S37.953 8 46.5 8 62 18.767 62 32s-6.953 24-15.5 24zm0-46C39.056 10 33 19.869 33 32s6.056 22 13.5 22S60 44.131 60 32s-6.056-22-13.5-22z" fill="#ffffff" transform="matrix(1.106375813484192, 0, 0, 1.106375813484192, 228.6168212890625, 203.0339813232422)" stroke="#ffffff" stroke-width="2" />
        <path class="cls-1" d="M17.5 56C8.953 56 2 45.233 2 32S8.953 8 17.5 8 33 18.767 33 32s-6.953 24-15.5 24zm0-46C10.056 10 4 19.869 4 32s6.056 22 13.5 22S31 44.131 31 32s-6.056-22-13.5-22z" fill="#ffffff" transform="matrix(1.106375813484192, 0, 0, 1.106375813484192, 213.6168212890625, 203.03396606445312)" stroke="#ffffff" stroke-width="2" />
      </g>
      <g fill="#c70000" stroke="#c70000" stroke-width="1">
        <path d="M32 22v20a10 10 0 0 0 0-20z" fill="#c70000" transform="matrix(2.6568801403045654, 0, 0, 2.6568801403045654, 172.37820434570312, 153.41783142089844)" stroke="#c70000" stroke-width="1" />
        <path d="M22 32a10 10 0 0 0 10 10V22a10 10 0 0 0-10 10z" fill="#c70000" transform="matrix(2.6568801403045654, 0, 0, 2.6568801403045654, 172.37820434570312, 153.41783142089844)" stroke="#c70000" stroke-width="1" />
      </g>
    </g>
    <g transform="matrix(0.7337801456451416, 0, 0, 0.7337801456451416, 208.9842071533203, 171.57101440429688)" fill="rgb(255, 213, 128)">
      <path fill="rgba(177, 3, 73, 1)" d="M87.13 149.965c-5.926-7.666-10.516-16.302-13.301-25.593-.313-2.087-2.296-2.687-3.935-1.55-5.79 4.017-8.211 12.338-4.578 17.951l1.88 2.988c.646 1.052-.639 2.16-1.63 1.46-11.416-5.556-18.112-16.119-22.784-28-3.091-7.852-5.775-22.676-17.294-21.028-1.461.21-2.582 1.625-2.416 3.05.938 8.12 4.404 35.848 9.67 51.959 3.413 10.451 15.101 19.789 22.998 25.117a17.251 17.251 0 0 1 7.584 14.31v36.889a4 4 0 0 0 4 4h32.181a4 4 0 0 0 4-4l-.088-46.528c.001-13.522-7.991-20.953-16.287-31.025z" transform="matrix(-0.006496839690953493, -0.5874189734458923, 0.5874189734458923, -0.006496839690953493, 46.95042419433594, 150.77947998046875)" />
      <path fill="rgba(177, 3, 73, 1)" d="M168.87 149.965c5.926-7.666 10.516-16.302 13.301-25.593.313-2.087 2.296-2.687 3.935-1.55 5.79 4.017 8.211 12.338 4.578 17.951l-1.88 2.988c-.646 1.052.639 2.16 1.63 1.46 11.416-5.556 18.112-16.119 22.784-28 3.091-7.852 5.775-22.676 17.294-21.028 1.461.21 2.582 1.625 2.416 3.05-.938 8.12-4.404 35.848-9.67 51.959-3.413 10.451-15.101 19.789-22.998 25.117a17.251 17.251 0 0 0-7.584 14.31v36.889a4 4 0 0 1-4 4h-32.181a4 4 0 0 1-4-4l.088-46.528c-.001-13.522 7.991-20.953 16.287-31.025z" transform="matrix(-0.006496839690953493, -0.5874189734458923, 0.5874189734458923, -0.006496839690953493, 47.269508361816406, 183.98199462890625)" />
    </g>
    <g transform="matrix(0.18670175969600677, 0, 0, 0.18670175969600677, 225.65882873535156, 206.6973114013672)" fill="rgb(255, 213, 128)">
      <g fill="rgba(244, 125, 165, 1)">
        <path fill="rgba(244, 125, 165, 1)" d="M245.058 42.674c2.243 2.815 4.717 5.778 7.789 7.711 3.679 2.316 9.349-1.584 7.724-5.919-2.494-6.652-9.566-12.977-16.585-14.583-2.244-.514-5.044 1.569-4.083 4.069A34.428 34.428 0 0 0 245.058 42.674Z" transform="matrix(1, 0, 0, 1, 0, 0)" />
        <path fill="rgba(244, 125, 165, 1)" d="M234.791 288.3c-7.137-3.464-14.649-3.186-22.433-3.833-8.564-.711-14.454-5.6-22.044-8.96a74.972 74.972 0 0 0-22.666-5.647c-6.75-.716-14.9-1.711-21.769-.28a2.3 2.3 0 0 0-2.648.77 3.936 3.936 0 0 0-.765 6.315c2.021 6.095 12.439 8.791 17.38 11.672 9.274 5.407 13.919 15.939 24.168 19.893 9.489 3.661 20.254 1.493 29.773-.91 5.656-1.428 11.539-2.725 17.091-4.525C238.947 300.18 245.489 293.493 234.791 288.3Z" transform="matrix(1, 0, 0, 1, 0, 0)" />
        <path fill="rgba(244, 125, 165, 1)" d="M284.181 212.3c-3.132 4.845-9.365 9.805-13.008 10.985-1.683.545-6.186 1.97-7.859.594-1.863-1.531 1.219-6.214 2.139-7.832 3.255-5.729 7.775-10.607 11.6-15.942a82.688 82.688 0 0 0 9.434-17.7c9.98-25.01 12.481-55.754 5.329-81.8-3.525-12.842-10.7-25.216-21.913-33.019-2.988-2.079-10.165-2.894-7.666 4.122 2.185 6.133 5.034 14.976 1.3 20.966-2.995 4.806-8.206 5.243-12.536 1.866-9.517-7.424-11.562-21.491-18.31-31.032-15.683-22.178-43.95-28.016-69.535-24.356-2.992.428-5.945 1.008-8.879 1.661-2.963.443-5.939.845-8.859 1.5-12.337 2.753-18.08 5.063-31.381 4.6-4.472-.155-8.94-.394-13.416-.4-8.344 0-16.9.712-24.818 3.5A43.176 43.176 0 0 0 57.462 62.041c-2.68 3.031-5.023 6.363-7.918 9.2a23.447 23.447 0 0 1-9.489 5.606 2.432 2.432 0 0 0-1.573.434 2.319 2.319 0 0 0-3 2.78c1.651 5.152 6.7 6.626 11.616 7.059 2.871.252 5.927-.068 8.7.866 4.11 1.382 4.024 4.864 2.926 8.176a151.579 151.579 0 0 0-10.262 16.528 155.023 155.023 0 0 0-14.293 37.766 151.506 151.506 0 0 0-3.652 43.722 131.489 131.489 0 0 0 2.008 16.31A64.561 64.561 0 0 0 36.012 226.8a73.221 73.221 0 0 0 4.167 10.208c1.3 2.617 5.579 3.2 7.5.964 9.177-10.7 22.332 8.94 24.674 16.5 3.311 10.686 1.966 22.35 7.089 32.548 5.49 10.93 17.142 14.261 28.232 16.7 13.719 3.016 27.742 5.4 41.575 1.664 5.274-1.425 4.519-8.259.608-9.99a4.426 4.426 0 0 0-3.629-1.447c-22.068.745-31.778-18.694-38.477-36.508a174.374 174.374 0 0 0-12.735-27.268c-7.213-12.238-7.022-29.242-5.5-34.06 2.08-6.6 5.776-13.614 11.472-17.808-.125 1.052-.216 2.106-.285 3.161-3.99 12.534.478 27.8 7.616 38.122a4.7 4.7 0 0 0 8.45-1.1c1.792-4.76 1.63-9.7 1.248-14.692-.38-4.971-1.013-10.175 1.97-14.516 2.7-3.922 6.872-6.648 10.178-10.012a53.917 53.917 0 0 0 8.621-12.284c4.651-8.541 9.371-17.553 18.985-21.358a19.1 19.1 0 0 1 7.947-1.266 7.582 7.582 0 0 1 4.86 13.034c-12.962 12.691-20.1 30.546-20.895 48.8-.549 12.663 2.689 24.062 11.566 33.344a90.021 90.021 0 0 0 14.232 11.673c10.394 7.133 26.113 10.815 33.1 12.049a76.873 76.873 0 0 0 35.9-1.85c11.953-3.685 22.063-10.806 31.319-19.033 8.337-7.411 15.585-16.481 15.877-28.067C291.813 208.888 286.034 209.438 284.181 212.3Z" transform="matrix(1, 0, 0, 1, 0, 0)" />
        <path fill="rgba(244, 125, 165, 1)" transform="matrix(0.9972501993179321, -0.07410848885774612, 0.07410848885774612, 0.9972501993179321, -20.598247528076172, 20.455917358398438)" data-cx="267.076" data-cy="289.518" data-rx="10.25" data-ry="8.269" d="M256.826 289.518 C256.826 284.9511574039038 261.41508131455004 281.24899999999997 267.076 281.24899999999997 C272.73691868545 281.24899999999997 277.326 284.9511574039038 277.326 289.518 C277.326 294.08484259609617 272.73691868545 297.787 267.076 297.787 C261.41508131455004 297.787 256.826 294.08484259609617 256.826 289.518 Z" />
        <path fill="rgba(244, 125, 165, 1)" transform="matrix(0.997292697429657, -0.07353410124778748, 0.07353410124778748, 0.997292697429657, -19.317012786865234, 4.367992877960205)" data-cx="49.658" data-cy="264.498" data-rx="8.491" data-ry="8.844" d="M41.167 264.498 C41.167 259.6135936727688 44.9685501894482 255.654 49.658 255.654 C54.3474498105518 255.654 58.149 259.6135936727688 58.149 264.498 C58.149 269.3824063272312 54.3474498105518 273.342 49.658 273.342 C44.9685501894482 273.342 41.167 269.3824063272312 41.167 264.498 Z" />
        <path fill="rgba(244, 125, 165, 1)" d="M293.879 197.26c1.338 5.631 8.157 5.631 9.006 5.631 6.631-.548 8.852-4.9 9.5-7.283a14.006 14.006 0 0 0 .03-7.235 9.867 9.867 0 0 0-9.615-7.24 11.052 11.052 0 0 0-4.695 1.268C295.12 183.974 292.177 190.1 293.879 197.26zm6.4-8.128a3.18 3.18 0 0 1 2.449-1.888 3.62 3.62 0 0 1 3.671 2.672c.354 1.377.606 8.045-4.747 6.616C297.967 195.548 299.493 190.841 300.277 189.132zM251.193 53.014c2.973 2.174 8.054.475 9.713-.877a7.732 7.732 0 0 0 2.574-8.761c-2.9-7.745-10.81-14.693-18.8-16.521a6.924 6.924 0 0 0-6.6 2.215 5.83 5.83 0 0 0-1.079 6C238.193 38.16 244.293 47.97 251.193 53.014zM245 33.921c3.541 1.687 10.495 5.745 12.666 11.635a1.612 1.612 0 0 1-.683 1.766 2.288 2.288 0 0 1-2.478.435c-2.633-1.658-4.909-4.376-7.015-7.019a34.077 34.077 0 0 1-3.652-5.607A.884.884 0 0 1 245 33.921zM168.111 299.692c4.147 4.418 8.435 8.986 14.785 11.436a34.485 34.485 0 0 0 12.515 2.171c6.566 0 13.135-1.452 19.136-2.967 1.356-.343 12.967-3.181 17.289-4.582 5.384-1.745 11.267-5.5 11.635-10.79.18-2.6-.944-6.357-7.324-9.454-6.3-3.061-12.808-3.454-19.1-3.833-1.468-.089-11.238-1.023-18.707-5.581a58.335 58.335 0 0 0-6.771-3.425c-6.78-3-24.695-6.013-24.695-6.013-6.657-.712-14.174-1.516-20.976-.244 0 0-4.831.983-6.276 3.695-2.152 4.04-.188 8.457-.188 8.457s2.491 5.853 14.266 10.27a30.741 30.741 0 0 1 4.578 2.188C162.017 293.2 164.977 296.352 168.111 299.692zm-11.9-16.543c-4.345-1.919-9.537-4.388-10.8-7.462-.88-2.146.709-2.985 1.1-3.066 6.019-1.254 13.288-.477 19.7.209 0 0 16.66 2.78 22.84 5.517a37.572 37.572 0 0 1 6.333 3.21c8.34 5.821 19.772 6.226 21.286 6.317 5.947.359 11.564.7 16.759 3.22 2.912 1.414 3.887 2.734 3.839 3.436-.1 1.44-2.939 3.88-7.352 5.31-4.1 1.331-15.523 4.122-16.895 4.468-8.933 2.255-19.194 4.38-27.894 1.024-5.028-1.94-8.653-5.8-12.491-9.891-3.3-3.517-6.714-7.154-11.231-9.787A54.136 54.136 0 0 0 156.213 283.149z" transform="matrix(1, 0, 0, 1, 0, 0)" />
        <path fill="rgba(244, 125, 165, 1)" d="M29.45 210.92a67.649 67.649 0 0 0 3.623 16.891A76.112 76.112 0 0 0 37.4 238.394a7.581 7.581 0 0 0 5.955 4.008 7.505 7.505 0 0 0 6.684-2.4c1.871-2.179 3.468-2.178 4.648-1.933 5.861 1.214 13.041 11.968 14.7 17.329a75.5 75.5 0 0 1 2.409 13.2c.811 6.593 1.649 13.41 4.871 19.826 6.079 12.1 18.849 15.812 30.34 18.339 8.7 1.912 17.76 3.66 27 3.66a61.19 61.19 0 0 0 16.055-2.031 7.916 7.916 0 0 0 6.02-7.159c.263-3.449-1.108-10.7-9.956-10.382-15.791.562-24.145-10.961-30.844-23.459-1.079-2.013-11.55-30.675-17.768-39.061-7.838-10.571-6.183-27.64-5.036-31.278a42.826 42.826 0 0 1 3.721-8.534c-.979 12.418 4.105 24.947 9.564 32.843a7.8 7.8 0 0 0 7.439 3.469 8.028 8.028 0 0 0 6.473-5.242c2.042-5.424 1.365-16.957 1.365-16.957-.344-4.331-.669-8.422 1.506-11.587 1.5-2.184 8.557-8.3 9.833-9.593 4.112-4.184 9.463-13.581 9.463-13.581 4.491-8.254 8.73-16.049 17.071-19.351a15.941 15.941 0 0 1 6.642-1.053 4.343 4.343 0 0 1 3.94 2.86 4.435 4.435 0 0 1-1.091 4.853c-13.022 12.751-20.978 31.3-21.826 50.884-.622 14.369 3.733 26.192 12.426 35.626 19.079 20.7 43.974 23.739 49.039 24.633a80.162 80.162 0 0 0 37.353-1.939c10.788-3.326 21.1-9.58 32.468-19.68 7.093-6.306 16.565-16.31 16.919-30.311.088-3.494-1.6-6.117-4.506-7.015a7.923 7.923 0 0 0-8.7 3.246 26.913 26.913 0 0 1-12.234 9.99 1.432 1.432 0 0 1-1.654-2.109 104.639 104.639 0 0 1 7.595-10.944c1.431-1.819 2.91-3.7 4.3-5.635a85.418 85.418 0 0 0 9.8-18.359c10.549-26.439 12.582-57.757 5.438-83.777-4.079-14.864-12.3-27.2-23.134-34.747-2.553-1.775-7.6-3.169-10.824-.7-1.333 1.018-3.305 3.466-1.541 8.417 1.532 4.3 4.72 13.258 1.592 18.281-.621 1-3.717 4.352-7.989 1.06-5.19-4-7.939-10.426-10.876-17.2-1.957-4.513-3.98-9.179-6.808-13.179a60.572 60.572 0 0 0-34.327-23.53 95.281 95.281 0 0 0-38.245-2.1c-2.736.394-22.59 4.278-24.7 4.787-8.189 1.981-19.192 2.95-37.337 2.541h-.015c-10.5 0-18.709 1.167-25.833 3.673a46.227 46.227 0 0 0-19.645 12.9c-1.056 1.2-6.091 7.4-7.765 9.043-2.194 2.152-5 4.681-13.595 6.721-1.92.456-1.853 3.372-1.246 5.263 2.621 8.18 11.413 8.952 14.3 9.206 1 .088 6.525.224 7.986.716.961.323 2.045.688 1.1 3.83a155.153 155.153 0 0 0-10.187 16.466 157.75 157.75 0 0 0-14.578 38.525 154.18 154.18 0 0 0-3.728 44.619A135.924 135.924 0 0 0 29.45 210.92Zm7.75-59.755a151.61 151.61 0 0 1 14.007-37.007c2.267-4.239 7.162-11.892 9.357-15.283a11.529 11.529 0 0 0 1.88-5.285A7.827 7.827 0 0 0 56.8 85.045a25.426 25.426 0 0 0-6.871-.9c-4.364-.252-8.748-1.449-9.988-2.6a.923.923 0 0 1 .378-1.557c6.247-1.819 8.656-3.823 11.405-6.519 1.926-1.889 7.1-8.265 8.069-9.363A40.1 40.1 0 0 1 76.839 52.946c6.442-2.266 14-3.321 23.772-3.321h.015c19.212 1 30.422-.688 38.8-2.714 2.082-.5 21.555-4.309 24.177-4.684.042-.006.085-.013.126-.021A90.478 90.478 0 0 1 199.3 44.184 54.437 54.437 0 0 1 230.161 65.3c2.456 3.474 4.266 7.646 6.181 12.063 3.117 7.189 6.244 14.747 12.754 19.625a11.584 11.584 0 0 0 17.083-2.673c4.046-7.118 1.544-17.538-1.014-23.65-.882-2.109 1.221-2.157 2.965-.53 8.6 8.014 17 17.826 20.693 31.292 6.8 24.76 4.847 54.6-5.219 79.83a79.287 79.287 0 0 1-9.073 17.04c-1.308 1.823-2.745 3.648-4.134 5.414a99.446 99.446 0 0 0-7.962 11.347c-1.569 2.646-4.819 8.159-1.094 11.222 2.655 2.186 6.945 1.208 10.79-.038 4.619-1.5 11.333-7.109 14.659-12.254a1.91 1.91 0 0 1 1.64-.7 1.736 1.736 0 0 1 .14.944c-.222 8.819-4.937 17.025-14.836 25.825-10.675 9.489-20.262 15.331-30.171 18.386a73.93 73.93 0 0 1-34.442 1.759c-3.384-.6-31.734-5.5-45.63-22.81-7.028-8.754-11.262-18.274-10.708-31.063.78-18.028 8.058-35.055 19.965-46.713a10.689 10.689 0 0 0-6.871-18.356 22.162 22.162 0 0 0-9.252 1.48c-10.435 4.13-15.645 13.708-20.241 22.158 0 0-4.887 8.582-8.438 12.195-1.1 1.12-8.571 7.589-10.522 10.429-3.423 4.981-2.974 10.621-2.578 15.6 0 0 .609 10.038-.987 14.275a1.8 1.8 0 0 1-1.418 1.267 1.659 1.659 0 0 1-1.57-.838c-6.3-9.111-11.257-23.688-7.212-35.413 1.617-4.686-.042-6.166-1.112-6.788a3.107 3.107 0 0 0-3.405.184c-5.449 4.013-9.92 10.894-12.591 19.375-1.632 5.178-3.33 24.3 5.97 36.845 5.683 7.663 16 35.894 17.283 38.3 7.28 13.583 17.277 27.312 36.53 26.734 3.957-.119 3.632 2.643 3.552 3.7a1.725 1.725 0 0 1-1.445 1.635c-13.406 3.621-27.159 1.145-40.1-1.7-10.557-2.321-21.269-5.4-26.123-15.06-2.739-5.454-3.477-11.449-4.258-17.795a81.051 81.051 0 0 0-2.641-14.279c-2.028-6.548-10.47-19.728-19.374-21.573a11.021 11.021 0 0 0-2.233-.233 10.806 10.806 0 0 0-8.391 4.205 1.469 1.469 0 0 1-1.2.284 1.547 1.547 0 0 1-1.159-.609 69.867 69.867 0 0 1-3.989-9.772c-.014-.041-.028-.081-.043-.122a61.467 61.467 0 0 1-3.3-15.531l-.04-.287a129.608 129.608 0 0 1-1.96-15.928A148.049 148.049 0 0 1 37.2 151.165Z" transform="matrix(1, 0, 0, 1, 0, 0)" />
        <path fill="rgba(244, 125, 165, 1)" d="M57.608 208.606a8.3 8.3 0 0 0 5.226 1.859 9.17 9.17 0 0 0 2.775-.443 11.877 11.877 0 0 0 7.546-7.852 25.162 25.162 0 0 0 .2-11.721 8.6 8.6 0 0 0-6.368-6.58 8.881 8.881 0 0 0-9.14 2.417 20.311 20.311 0 0 0-4.62 13.907A11.739 11.739 0 0 0 57.608 208.606zm4.887-18.2h0c2.359-2.185 4.649-.277 4.752 1.169.26 3.623.642 6.468-.054 8.85-.481 1.645-1.611 5.331-5.718 3.317-1.413-.692-1.9-2.316-2.058-4.088A14.154 14.154 0 0 1 62.5 190.409zM69.244 162.908a8.089 8.089 0 0 0 4.164 1.048 13.975 13.975 0 0 0 6.544-1.8c6.3-3.413 10.2-8.961 13.967-14.326 0 0 9.112-12.858 13.433-17.784 5.047-5.751 9.684-9.764 14.592-12.629 3.186-1.86 17.416-7.671 20.895-9.667a7.563 7.563 0 0 0 3.213-9.683 7.648 7.648 0 0 0-9.216-4.639 17.435 17.435 0 0 1-11.742-.88l-.142-.057c-4.154-1.682-8.449-3.423-13.61-3.107-8.673.529-16.579 5.485-23.5 14.731-9.916 13.253-21.739 33.2-21.751 52.943A6.506 6.506 0 0 0 69.244 162.908zM92.82 107.836c5.9-7.618 12.12-12.251 18.9-12.251 4.239 0 7.357 1.229 10.9 2.664l.142.058a23.581 23.581 0 0 0 15.689 1.119 1.515 1.515 0 0 1 1.859 1.014 1.413 1.413 0 0 1-.563 1.921c-3.12 1.79-17.373 7.61-20.936 9.691-5.5 3.212-10.629 7.628-16.129 13.9-4.534 5.167-13.848 18.31-13.848 18.31-3.51 5-6.826 9.718-11.842 12.434a9.351 9.351 0 0 1-2.188.871 2.127 2.127 0 0 1-2.641-1.947C71.867 150.183 72.983 133.44 92.82 107.836zM186.076 223.894c8.226 9 18.928 12.866 26.347 12.866 12.58 0 21.527-6.181 25.9-9.618 8.187-6.438 14.234-16.847 17.025-29.311 2.538-11.33 2.447-23.935-.232-32.111-3.463-10.573-10.373-17.808-17.752-24.893a132.253 132.253 0 0 1-19.025-23.112c-3.058-4.684-5.677-9.085-8.009-13.456-.509-.953-4.292-10.161-12.328-7.228a7.092 7.092 0 0 0-4.211 8.04c1.763 9.451 5.732 18.075 9.57 26.415 4.294 9.332 8.351 18.146 9.564 28a86.965 86.965 0 0 1 .606 14.5c-.018.4-.291 8.189-2.143 9.769a5.024 5.024 0 0 1-5.722.294c-3.5-2.363-1.5-9.543-3.622-11.806-1.025-1.094-3.751-3.531-8.939-.788-12.267 6.487-16.594 22.93-14.527 35.819A31.944 31.944 0 0 0 186.076 223.894zM194.4 177.2a2.051 2.051 0 0 1 3.2 1.538c.219 3 1.1 7.392 4.2 10.179 3.616 3.255 9.791 2.841 13.622-.429 3.933-3.355 4.3-13.84 4.317-14.215a93.278 93.278 0 0 0-.646-15.541c-1.332-10.817-5.783-20.489-10.087-29.842-3.849-8.364-7.484-16.264-9.106-24.957-.156-.838 1.007-1.236 2.112-.469a13.113 13.113 0 0 1 2.84 3.721c2.418 4.532 5.128 9.088 8.287 13.927a138.4 138.4 0 0 0 19.925 24.2c7.049 6.768 13.129 13.122 16.151 22.346 2.319 7.079 2.348 18.661.073 28.819-2.479 11.072-7.737 20.23-14.8 25.785-3.754 2.952-11.721 7.688-19.69 8.155-6.646.389-17.206-2.829-23.9-10.45A27.123 27.123 0 0 1 184.71 206.3C183.193 196.838 184.994 183.508 194.4 177.2zM247.131 135.966a7.854 7.854 0 0 0 9-1.485 7.506 7.506 0 0 0 1.352-8.825c-6.039-12.474-12.169-18.977-19.293-20.466a7.5 7.5 0 0 0-6.094 1.006 6.114 6.114 0 0 0-2.462 4.468c-.537 5.021 3.677 11.864 5.979 14.781C238.713 129.375 242.508 133.7 247.131 135.966zm-11.321-24.64a1.11 1.11 0 0 1 .016-.117 2.855 2.855 0 0 1 1.092.062c4.944 1.034 9.982 6.784 14.972 17.091a1.366 1.366 0 0 1-.143 1.715 1.646 1.646 0 0 1-1.881.311c-3.507-1.719-6.708-5.409-9.379-8.793C238.086 118.554 235.575 113.515 235.81 111.326zM267.912 300.863c7.365 0 12.946-6.071 12.485-12.327s-6.811-10.9-14.157-10.362-12.946 6.071-12.484 12.327C254.192 296.424 258.432 300.863 267.912 300.863zM266.7 284.37h0c5.355 0 7.31 2 7.5 4.622.2 2.792-2.884 5.391-6.747 5.675s-7.3-1.832-7.5-4.623S262.834 284.654 266.7 284.37zM49.7 276.447c8.9-.724 16.626-9.7 7.561-20.938 0 0-2.594-3.447-8.483-2.93h0a11.969 11.969 0 0 0 .923 23.868zm-.465-17.672a5.18 5.18 0 0 1 3.873 1.355c1.123 1.009 4.043 9.509-3.029 10.09a5.75 5.75 0 0 1-.844-11.445z" transform="matrix(1, 0, 0, 1, 0, 0)" />
      </g>
      <path fill="#c11646" d="M60.171 188.347c-3.192 3.6-6.569 13.1-.629 17.828 3.894 3.1 9.324-.4 10.632-4.876a22.383 22.383 0 0 0 .127-10.286C69.5 186.671 63.07 185.079 60.171 188.347zM78.472 159.424c6.222-3.37 10-9.288 13.986-14.913A200.908 200.908 0 0 1 105.017 128a63.185 63.185 0 0 1 15.36-13.263c6.659-3.887 14.225-5.84 20.916-9.678 4.658-2.671 1.551-10.029-3.649-8.629a20.633 20.633 0 0 1-13.716-1c-4.083-1.653-7.885-3.218-12.4-2.942-9.006.549-16.038 6.594-21.2 13.491C79.687 120.2 69.212 139.147 69.2 157.06 69.2 161.31 74.021 161.835 78.472 159.424zM252.315 197.152c2.366-10.563 2.365-22.78-.153-30.465-3.229-9.858-9.621-16.581-16.951-23.619a135.2 135.2 0 0 1-19.475-23.655c-2.914-4.464-5.639-8.989-8.148-13.691-.465-.87-2.13-3.731-3.9-4.87-2.529-3.162-7.6-.371-6.848 3.65 3.587 19.229 16.754 35.038 19.163 54.608a90.228 90.228 0 0 1 .625 15.022c-.172 3.834-.014 9.249-3.229 11.992a7.92 7.92 0 0 1-9.672.362c-2.083-1.658-2.648-3.765-3.041-6 .024-.031 1.39-10.257-6.135-6.278-10.748 5.684-14.8 20.775-12.911 32.581a32.134 32.134 0 0 0 6.839 15.141 24.245 24.245 0 0 0 4.575 4.3c5.967 5.177 14.417 8.163 22.1 7.264a27.717 27.717 0 0 0 7.378-1.931A37.786 37.786 0 0 0 236.4 224.7C244.878 218.035 249.98 207.582 252.315 197.152zM248.5 133.177a4.581 4.581 0 0 0 6.187-6.167c-5.911-12.213-11.531-17.609-17.132-18.779-2.532-.529-4.565.275-4.832 2.764-.4 3.692 3.095 9.7 5.328 12.525C240.85 127.069 244.388 131.162 248.5 133.177z" transform="matrix(1, 0, 0, 1, 0, 0)" />
      <path fill="rgb(255, 213, 128)" d="M309.406 189.145a6.78 6.78 0 0 0-6.467-4.909 7.976 7.976 0 0 0-3.386.913c-1.558.82-4.323 5.408-2.682 11.275.442 1.581 2.46 2.766 4.092 3.137a6.951 6.951 0 0 0 5.277-.688 7.1 7.1 0 0 0 3.147-4.08A10.98 10.98 0 0 0 309.406 189.145Z" transform="matrix(1, 0, 0, 1, 0, 0)" />
    </g>
    <g transform="matrix(-0.7337799072265625, 0.0005565703613683581, -0.0005565703613683581, -0.7337799072265625, 303.73187255859375, 305.2256774902344)" fill="rgb(255, 213, 128)">
      <path fill="#b10349" d="M87.13 149.965c-5.926-7.666-10.516-16.302-13.301-25.593-.313-2.087-2.296-2.687-3.935-1.55-5.79 4.017-8.211 12.338-4.578 17.951l1.88 2.988c.646 1.052-.639 2.16-1.63 1.46-11.416-5.556-18.112-16.119-22.784-28-3.091-7.852-5.775-22.676-17.294-21.028-1.461.21-2.582 1.625-2.416 3.05.938 8.12 4.404 35.848 9.67 51.959 3.413 10.451 15.101 19.789 22.998 25.117a17.251 17.251 0 0 1 7.584 14.31v36.889a4 4 0 0 0 4 4h32.181a4 4 0 0 0 4-4l-.088-46.528c.001-13.522-7.991-20.953-16.287-31.025z" transform="matrix(-0.006496839690953493, -0.5874189734458923, 0.5874189734458923, -0.006496839690953493, 46.95042419433594, 150.77947998046875)" />
      <path fill="rgba(177, 3, 73, 1)" d="M168.87 149.965c5.926-7.666 10.516-16.302 13.301-25.593.313-2.087 2.296-2.687 3.935-1.55 5.79 4.017 8.211 12.338 4.578 17.951l-1.88 2.988c-.646 1.052.639 2.16 1.63 1.46 11.416-5.556 18.112-16.119 22.784-28 3.091-7.852 5.775-22.676 17.294-21.028 1.461.21 2.582 1.625 2.416 3.05-.938 8.12-4.404 35.848-9.67 51.959-3.413 10.451-15.101 19.789-22.998 25.117a17.251 17.251 0 0 0-7.584 14.31v36.889a4 4 0 0 1-4 4h-32.181a4 4 0 0 1-4-4l.088-46.528c-.001-13.522 7.991-20.953 16.287-31.025z" transform="matrix(-0.006496839690953493, -0.5874189734458923, 0.5874189734458923, -0.006496839690953493, 47.269508361816406, 183.98199462890625)" />
    </g>
  </g>
  <path text="PROMETHEE" fill="#ffffff" transform="matrix(2.1340272426605225, 0.024446917697787285, -0.024446917697787285, 2.1340272426605225, 305.56085205078125, 494.9026184082031)" space="preserve" text-anchor="middle" offset="0.5" font-scale="contain" font-size="48" font-family="Salsa" data-fl-textpath="" id="_eg90l3bab_225" font-weight="400" font-style="normal" path="M-157.23689730416535 -104.04181861236003C-84.06265987546698 -0.22506179170835594 40.516648405922155 -1.0984828925332408 108.49973515926709 -108.7472261043757" stroke="#000000" stroke-width="1" d="M-117.29885283224101-105.34265444245943L-117.29885283224101-105.34265444245943Q-112.18057437550058-102.89540585695225 -108.06327616601023-98.86732250948694Q-103.94597795651985-94.83923916202163 -102.94303889492724-90.43054170826821Q-101.94724792050391-86.02883745477082 -105.47182084953606-82.42620152146675Q-108.99639377856822-78.82356558816268 -113.93263241146697-78.85435777999425Q-118.87601913153497-78.89214317208186 -122.44291462899278-82.38175009983394L-122.44291462899278-82.38175009983394Q-125.05196644577053-84.93426819327983 -123.10785677459803-86.92143642633248L-123.10785677459803-86.92143642633248Q-122.49944835232463-87.54332001005758 -121.58506616399244-87.99176756960144L-121.58506616399244-87.99176756960144Q-120.89358364069396-86.83961657256468 -120.14303448792228-86.105330545683L-120.14303448792228-86.105330545683Q-117.77701763489917-83.79058126094164 -115.28193228236177-83.89569588196711Q-112.78700181673761-84.01495179041788 -110.52120493378838-86.33093203325622Q-108.25540805083914-88.64691227609454 -108.45143427519281-91.04907249543163Q-108.64761538645975-93.46537400219398 -110.9778918036366-95.74515728565527L-110.9778918036366-95.74515728565527Q-112.17877044807129-96.92001492866599 -114.29991698354121-98.18379393429312L-114.29991698354121-98.18379393429312Q-118.69753244702241-94.23216411416183 -121.88643176376578-90.97263636498195L-121.88643176376578-90.97263636498195Q-130.81674849069844-81.84452904984444 -134.09505711995828-77.06365125059872L-134.09505711995828-77.06365125059872Q-135.5943200717031-77.71902183395247 -136.83093915198404-78.92884547824326Q-138.06755823226501-80.13866912253405 -138.20611327459852-81.81309514366606Q-138.337675116676-83.49466925196732 -137.06491267008104-84.79562111677157Q-135.78515702323008-86.10372106874507 -132.27412912313054-89.0061309441284Q-128.756108022775-91.915688906681 -126.8469643528826-93.86711670388738L-126.8469643528826-93.86711670388738Q-121.00064893885308-99.84291757738382 -117.29885283224101-105.34265444245943ZM-97.73318787682568-67.03350914047587L-97.73318787682568-67.03350914047587Q-98.59530192481371-62.061994344333584 -97.85487932133452-57.367745270386074Q-97.11445671785532-52.673496196438556 -95.026245931392-49.977763325529764L-95.026245931392-49.977763325529764Q-96.19017953014432-48.32680645822661 -97.68217540603337-48.032785529838726Q-99.18810638323951-47.7363535951709 -100.79819798155002-48.871476956330355L-100.79819798155002-48.871476956330355Q-102.87415364637677-50.33503702604864 -103.64285555108621-54.9023992168209Q-104.41973050959422-59.47552345511174 -103.810450192998-64.5396401101473Q-103.2151049777189-69.60134575890288 -101.60168808722129-72.63612514750054L-101.60168808722129-72.63612514750054Q-98.77381147292976-70.64245670607328 -95.88524168492093-70.86953506215897Q-92.9966718969121-71.09661341824469 -91.03181369307772-73.88362476354357L-91.03181369307772-73.88362476354357Q-88.54260916505292-77.41438400450873 -92.93153905486376-80.508603521984L-92.93153905486376-80.508603521984Q-94.34547736200955-81.50543774269762 -96.72293956771956-82.47191250202683L-96.72293956771956-82.47191250202683Q-100.72645713510826-77.3659212086921 -103.01975204750147-74.11304579687697L-103.01975204750147-74.11304579687697Q-110.37788672872291-63.67605609615357 -112.8507104819767-58.43303762533509L-112.8507104819767-58.43303762533509Q-114.43538646922927-58.84059377536245 -115.84932477637504-59.83742799607607Q-117.2632630835208-60.83426221678971 -117.66741568889084-62.46507816948721Q-118.06580624674228-64.10406717598323 -117.01711359836148-65.59156296731577Q-115.96265890246208-67.08723181244684 -112.96014479421771-70.51304690228949Q-109.9518686384548-73.94703504593069 -108.37882966588357-76.1782787329295L-108.37882966588357-76.1782787329295Q-103.5387097502798-83.04364392369509 -100.75685917647337-89.0720937563646L-100.75685917647337-89.0720937563646Q-94.43507585671914-86.79309054046583 -89.65383938457882-83.4222927420989L-89.65383938457882-83.4222927420989Q-80.9004987663527-77.25113984970412 -85.29694102302612-71.01509980142538L-85.29694102302612-71.01509980142538Q-87.23298898926762-68.26895372511913 -90.80201132083103-67.16347663498942Q-94.36527160487587-66.06617259865826 -97.73318787682568-67.03350914047587ZM-66.58612522988031-51.90483321298157L-66.58612522988031-51.90483321298157Q-64.2738560201206-57.125705850922216 -64.97478823307156-61.29685605594333Q-65.67572044602251-65.46800626096444 -70.19255246553683-67.46846333560768L-70.19255246553683-67.46846333560768Q-72.91728109269324-68.67521679359086 -75.79776514698433-67.85107383695359L-75.79776514698433-67.85107383695359Q-77.80440581826934-66.5305462089409 -79.85784908714135-63.721459036650884Q-81.91534186426159-60.90322847970598 -83.15854089647914-58.09620939065559L-83.15854089647914-58.09620939065559Q-85.45461207324578-52.91191029133449 -84.7325159152803-48.86262922691682Q-84.00637024906655-44.82249154715404 -79.4346779216229-42.7977374230212L-79.4346779216229-42.7977374230212Q-76.93853391083867-41.692221671244674 -74.29211224248188-42.92626071165287L-74.29211224248188-42.92626071165287Q-69.55846428410732-45.19358887629431 -66.58612522988031-51.90483321298157ZM-82.76457073324052-39.32904691172772Q-89.16493999166161-42.16370268551369 -90.6233035635002-47.88430367599836Q-92.08571664358705-53.595761281828146 -89.04453594913954-60.462443157648494Q-86.00335525469202-67.32912503346886 -79.66460776353652-70.50422821972438Q-73.32181076413278-73.68847479063479 -66.93058489036656-70.85786852509708Q-60.54850240125524-68.03131176780765 -59.100198617844725-62.23860806824223Q-57.63870194153107-56.45099824508345 -60.69203116072339-49.556886215298434Q-63.74131087166744-42.671917570168304 -70.05275617324341-39.583154354055026Q-76.35505809016452-36.49034162969348 -82.76457073324052-39.32904691172772ZM-24.641937898136767-57.17880418723286L-24.641937898136767-57.17880418723286L-26.134277803891656-49.39697139503721Q-27.169327338135098-42.94952442265641 -27.602152954898905-37.79294008944969Q-28.044852150487174-32.63794082444242 -27.67917378047801-26.46190007573395L-27.67917378047801-26.46190007573395Q-28.853800490400154-25.76933087894747 -31.1345971988534-26.135481633021342L-31.1345971988534-26.135481633021342Q-35.53821335456831-26.84242204997781 -34.92162182498072-30.68324421269777L-34.92162182498072-30.68324421269777Q-34.41122986475654-33.862536594178046 -33.05583377315936-40.349708661796036Q-31.700437681562168-46.83688072941403 -31.10603710676693-50.53947278859137L-31.10603710676693-50.53947278859137Q-34.25769459710065-47.247413393072605 -37.94186700357565-42.27856305528136Q-41.63749805707459-37.30142420686509 -41.835631582006336-36.06722685380598Q-42.03218003873863-34.84290307957134 -41.902998784514146-34.13345808272029L-41.902998784514146-34.13345808272029Q-43.055797709271694-33.639945530622725 -44.78367400355445-33.91733246552717Q-46.51155029783721-34.194719400431616 -47.52446605197743-35.32962101511659Q-48.52750822729318-36.46293756160209 -49.04122949691828-38.246919191870404Q-49.564824345367846-40.032485890338165 -50.7498129773066-45.205715243670184Q-51.934801609245355-50.37894459700219 -52.98149574682828-54.142431196201066L-52.98149574682828-54.142431196201066Q-55.43936574986585-46.718161868639726 -56.384066396740415-40.83350888925388Q-57.32718197541553-34.9587294886925 -57.536876145684076-31.255146310882747L-57.536876145684076-31.255146310882747Q-59.13946766139676-30.924994173579776 -60.65999880036558-31.169094676295686L-60.65999880036558-31.169094676295686Q-63.69118749947878-31.655710613528058 -63.20457156224641-34.68689931264124L-63.20457156224641-34.68689931264124Q-62.83208053537473-37.00719033639237 -60.64984600991606-43.787002463280274Q-58.46919655265684-50.55694101134368 -57.70043847592166-55.34562674121305Q-56.933265467385944-60.12443889225793 -56.78608129671397-64.38497134958104L-56.78608129671397-64.38497134958104Q-54.122624811812074-64.63596846716214 -52.70082946108798-64.40771864644077L-52.70082946108798-64.40771864644077Q-50.094204651427134-63.989260641784924 -49.48224315287352-61.997075127258725L-49.48224315287352-61.997075127258725Q-48.54072346658398-58.77713092272206 -46.822266407371174-51.81674980272283Q-45.09393576933391-44.85478361452415 -43.89913794938389-41.06752099233346L-43.89913794938389-41.06752099233346Q-43.265114277664345-41.98866918003144 -41.00782520476396-45.00905757250094Q-38.75212120006303-48.01957238614598 -37.20979266730518-50.18244609883495Q-35.67892278157126-52.33703130089892 -33.94298514854074-55.390475345617666Q-32.21692109433469-58.44550445853587 -31.49287770543639-60.8106389517503L-31.49287770543639-60.8106389517503Q-29.708665295228784-61.01035393681946 -28.079524789190756-60.74881768390956Q-26.440510704328247-60.4856963628002 -25.419174049874556-59.592515844500944Q-24.397837395420858-58.69933532620169 -24.641937898136767-57.17880418723286ZM-1.6381617028173259-35.22527930692102L-1.6381617028173259-35.22527930692102Q-0.9549628176306384-33.99148869126548 -0.8090365054755413-32.36803388394228Q-0.6622149398716388-30.734619231175373 -1.672972976056009-29.469048927996326Q-2.692795604235273-28.19262352592477 -4.316250411558477-28.046697213769672L-4.316250411558477-28.046697213769672Q-9.385811742402094-27.59101320832829 -20.244168748847915-27.197334252110284L-20.244168748847915-27.197334252110284Q-21.10519172425019-27.170141682731618 -21.827223886862047-27.60725672039796Q-22.539296204030205-28.0452670115131 -22.608230719588132-28.812175110678048L-22.608230719588132-28.812175110678048Q-22.836520349033226-31.351935698821706 -22.968899768919286-37.404387738217864Q-23.102174442254146-43.46679962305771 -23.573077756325198-48.70567832644424Q-24.043085816947446-53.93459718438707 -25.65959305884573-60.63679117866166L-25.65959305884573-60.63679117866166Q-22.09788557631668-60.66577063511986 -16.12197831009631-61.20292270440243Q-10.146071043875935-61.740074773684995 -4.775922636217668-63.09628496378289L-4.775922636217668-63.09628496378289Q-4.103354734909777-62.092466046781276 -3.9726477313843525-60.63832861200098Q-3.841045474410123-59.174231331776994 -4.865344369833409-57.94760515692394Q-5.890538518705502-56.730938827514585 -7.533913016916103-56.583222008461874Q-9.187247360570407-56.43460993596037 -12.835683576732638-56.58860076879085Q-16.49407963833857-56.74169634817252 -18.207173054655076-56.587712754978185L-18.207173054655076-56.587712754978185Q-18.161409104289323-51.722272830280026 -17.8289351088684-47.46494255857584L-17.8289351088684-47.46494255857584Q-14.785139589411788-47.44736883569621 -11.319113375003969-47.7589170358801Q-7.853087160596155-48.07046523606399 -5.463506243443932-49.299327734630026L-5.463506243443932-49.299327734630026Q-4.790938342136044-48.2955088176284 -4.660231338610619-46.84137138284811Q-4.528629081636389-45.37727410262411 -5.549346963264458-44.110808545996264Q-6.569169591443722-42.834383143924704 -8.122905480661021-42.694723605911236Q-9.676641369878318-42.55506406789777 -12.788029128022666-42.87781198573689Q-15.899416886167014-43.200559903576014 -17.47307246627171-43.05910985866494L-17.47307246627171-43.05910985866494Q-16.794470352078065-35.509547012339866 -16.147085224661623-31.993385398192995L-16.147085224661623-31.993385398192995Q-13.829351111639498-32.01095188143646 -12.544531049402117-32.12643957633222L-12.544531049402117-32.12643957633222Q-6.229989038095923-32.69403026287413 -1.6381617028173259-35.22527930692102ZM-4.571768426962393-62.85668313629286L-4.571768426962393-62.85668313629286L 5.192800084037398-65.55662791239318Q 12.748463738828619-67.7586376162017  16.09039597666586-69.33673422848632L 16.09039597666586-69.33673422848632Q 16.872222520673233-68.51256964838993  17.235959828799164-67.26449305992378Q 17.59689915763182-66.02601706059967  16.783821252797114-64.70578817109997Q 15.967945368669154-63.39515987074231  14.403049338515439-62.939089245938256L 14.403049338515439-62.939089245938256L 8.927251436628916-61.99944179199867Q 9.022382732600315-61.67302176116906  9.530635126616144-59.07131472462994L 9.530635126616144-59.07131472462994Q 10.700486236142078-52.662668347933774  12.527566714651561-46.39348363817688Q 14.354647193161046-40.12429892842  17.138988606581982-34.14451273713279L 17.138988606581982-34.14451273713279Q 15.784378321148537-33.145597838556384  14.12347639957435-32.661547420819566Q 12.462574478000171-32.17749700308275  10.997899453645218-32.771405306637114Q 9.520825860854945-33.37211622004025  8.964027981492942-35.28263345930766Q 8.40723010213094-37.19315069857507  7.45787681713791-42.166150632244175Q 6.508523532144881-47.13915056591328  5.171089429958766-51.7282321758119Q 3.836453307065929-56.30771319656846  2.220059580124504-60.13845350615673L 2.220059580124504-60.13845350615673Q-3.2767413118999595-58.234410451643775 -6.031604146908345-56.035790257001324L-6.031604146908345-56.035790257001324Q-6.896216039407491-56.92957226361651 -7.279539202586356-58.244852976076984Q-7.662862365765221-59.56013368853746 -6.928565178866807-60.971979162133316Q-6.184667402826339-62.386622615022425 -4.571768426962393-62.85668313629286ZM 35.63453120053248-41.47770274581126L 35.63453120053248-41.47770274581126Q 34.55699032912666-40.246359710564775  33.03020120049321-39.43283960836281Q 31.50341207185976-38.61931950616084  29.86532287776343-38.99290188286622Q 28.222531255330672-39.37530963025734  27.319665014736582-41.069780801919904Q 26.416798774142492-42.76425197358246  24.277593123705124-47.799795557460655Q 22.143089901604185-52.82651377065311  20.605395835592375-55.71240998489091L 20.605395835592375-55.71240998489091Q 16.65535603299324-63.12572136091462  13.464506137220177-66.96638236426352L 13.464506137220177-66.96638236426352Q 14.550872379311723-68.20242782784644  16.068836137259435-69.01124550171197Q 17.595625265892888-69.82476560391393  19.23371445998922-69.45118322720856Q 20.885331453107714-69.07347790815388  21.64242241527255-67.65259322774932Q 22.39481094910096-66.24053391803052  22.98956832299975-64.86912454581775Q 23.58432569689855-63.49771517360499  24.310684523777784-61.70919543521388Q 25.045868721342764-59.92537812515919  25.64359006561665-58.61220289138441L 25.64359006561665-58.61220289138441Q 27.427407375671336-59.347387088949404  31.57533159797032-61.55752840707035Q 35.723255820269294-63.76766972519129  37.7950330683494-65.30215303703854L 37.7950330683494-65.30215303703854Q 34.207080247655185-72.03591087026007  30.696465225005042-76.47669708023946L 30.696465225005042-76.47669708023946Q 31.7828314670966-77.71274254382237  33.30079522504431-78.52156021768792Q 34.82758435367776-79.33508031988987  36.470375976110525-78.95267257249876Q 38.1172905408926-78.58379262412981  39.029561638159535-76.87167071109576Q 39.94653516376291-75.15072342737597  41.84591696904246-70.56527374847064Q 43.75000120265846-65.97099869887958  45.14662241857744-63.34986360521405L 45.14662241857744-63.34986360521405Q 49.57160748315576-55.04518978993035  53.13923113183014-50.47614596201413L 53.13923113183014-50.47614596201413Q 52.061690260424335-49.24480292676765  50.534901131790875-48.431282824565685Q 49.008112003157414-47.617762722363715  47.36532038072466-48.000170469754835Q 45.72723118662834-48.37375284646022  44.871389229398524-49.979970311265355Q 44.01084484383229-51.59501314675623  42.40410602694592-55.418583516752136Q 40.810895009081726-59.23803094439873  40.166149381443574-60.63945988503092L 40.166149381443574-60.63945988503092Q 35.858342595706056-58.729381170225224  27.64192248727978-54.35142038901118L 27.64192248727978-54.35142038901118L 28.22972602933322-53.248249053293364Q 32.22679011529664-45.74668397041222  35.63453120053248-41.47770274581126ZM 70.65239737029893-72.47362626024503L 70.65239737029893-72.47362626024503Q 71.90489589707217-71.82536131407652  72.92617578181873-70.55497263457247Q 73.95372118733061-69.27679015948864  73.81388201193732-67.66317775093901Q 73.67251456172959-66.03550602604429  72.40212588222553-65.01422614129771L 72.40212588222553-65.01422614129771Q 68.43508393211779-61.825076071751695  59.615415523668744-55.47902618501067L 59.615415523668744-55.47902618501067Q 58.913821499981125-54.979160377092356  58.0705673622903-54.942794744039816Q 57.23510702017926-54.91269463175259  56.7526619212499-55.512816891395616L 56.7526619212499-55.512816891395616Q 55.15495412609423-57.50023476423937  51.69012520261413-62.46457364580414Q 48.21903075836869-67.43670632294867  44.92336683581229-71.53624279791266Q 41.63396843402121-75.62798547729686  36.573709918517736-80.3105364654095L 36.573709918517736-80.3105364654095Q 39.5222074515336-82.3087762652832  44.19848479940127-86.068088724473Q 48.87476214726894-89.8274011836628  52.59286802282579-93.93270125773165L 52.59286802282579-93.93270125773165Q 53.70905336757654-93.4699591306634  54.62381939931272-92.3320649760156Q 55.544850951814226-91.18637702578802  55.37215589777989-89.5976742787922Q 55.193195322980245-88.01676532737615  53.907219052316634-86.98295440109897Q 52.61344898607324-85.94287795405643  49.491349989457916-84.04886162484134Q 46.361457197262766-82.1485797748609  45.02092435754071-81.0709102032265L 45.02092435754071-81.0709102032265Q 47.755743901107735-77.04656403718613  50.392152289998926-73.68728572079372L 50.392152289998926-73.68728572079372Q 52.935372452866275-75.35971844087098  55.647613314629524-77.54011966720107Q 58.35985417639276-79.72052089353114  59.667691678460905-82.06780891765266L 59.667691678460905-82.06780891765266Q 60.78387702321164-81.60506679058437  61.69864305494782-80.46717263593658Q 62.619674607449326-79.321484685709  62.472041636476256-77.70160675639404Q 62.33067418626851-76.07393503149933  61.11484207582291-75.09651379210997Q 59.89900996537732-74.11909255272063  57.13038347646605-72.66320541255527Q 54.361756987554784-71.20731827238993  53.13033728594962-70.21736599146993L 53.13033728594962-70.21736599146993Q 57.87960202605941-64.30966894199712  60.36732267264477-61.74183990085108L 60.36732267264477-61.74183990085108Q 62.28673434611483-63.041093081623345  63.29213397590638-63.84934526034915L 63.29213397590638-63.84934526034915Q 68.23340037348655-67.82168542555972  70.65239737029893-72.47362626024503ZM 88.1469195091336-91.1631661053266L 88.1469195091336-91.1631661053266Q 89.48124718336354-90.70647183364794  90.67852026168764-89.60038088986423Q 91.8831385736211-88.48750411206957  91.98251749668947-86.87089536854201Q 92.08245581935624-85.24015555739416  90.97636487557253-84.04288247907004L 90.97636487557253-84.04288247907004Q 87.52237536400254-80.30415857191075  79.73372191278709-72.72815847840035L 79.73372191278709-72.72815847840035Q 79.11341401979925-72.13039755805093  78.2847156265876-71.97021337316225Q 77.46280306738691-71.81737442188293  76.89722007946693-72.33988364072555L 76.89722007946693-72.33988364072555Q 75.0241855090826-74.070271313516  70.86588360348368-78.47006963410894Q 66.7002364642754-82.87665378871282  62.836643585757145-86.44600247846883Q 58.98039594084824-90.0085653342139  53.28557738416609-93.89463553513262L 53.28557738416609-93.89463553513262Q 55.907560232722005-96.30540428013462  59.979060639287795-100.71254444574481Q 64.05056104585358-105.119684611355  67.12337692582592-109.72789495462166L 67.12337692582592-109.72789495462166Q 68.29555006105176-109.43462009880403  69.36795416801691-108.44388833320636Q 70.4477035085914-107.44637073359773  70.51091566321142-105.84956009250459Q 70.5667825842221-104.2595352854224  69.44711997241652-103.0475717398796Q 68.32067152659997-101.82826296072744  65.5116284013898-99.49500842666791Q 62.69579944216866-97.15440865899899  61.52863599228648-95.89102847819073L 61.52863599228648-95.89102847819073Q 64.82642676639459-92.31343487211873  67.92891234753247-89.37915758139933L 67.92891234753247-89.37915758139933Q 70.19803182751936-91.40797417871512  72.55950206332751-93.96411547476903Q 74.92097229913567-96.52025677082294  75.8687763733161-99.03458917465642L 75.8687763733161-99.03458917465642Q 77.04094950854193-98.74131431883877  78.11335361550707-97.7505825532411Q 79.19310295608156-96.75306495363247  79.28569604513899-95.12911097649555Q 79.38563436780576-93.4983711653477  78.32704426209867-92.35251472228904Q 77.26845415639156-91.2066582792304  74.74448909847105-89.35882160181643Q 72.22052404055053-87.51098492440246  71.14836226682154-86.35043801412512L 71.14836226682154-86.35043801412512Q 76.71604934270907-81.20677583383033  79.5548850299989-79.0334116350432L 79.5548850299989-79.0334116350432Q 81.26197212510438-80.60122975259519  82.13734471251604-81.54876488820139L 82.13734471251604-81.54876488820139Q 86.4395634754539-86.20564299652949  88.1469195091336-91.1631661053266Z" />
</svg>