<svg xmlns="http://www.w3.org/2000/svg" width="512" height="512" style="" viewBox="0 0 512 512" data-svgdocument="" id="_eg90l3bab_1" class="fl-svgdocument" x="0" y="0" data-bbox="37.36303592290474 109.64402019607832 434.50783714570423 307.40385879028514" fill="rgb(255, 213, 128)">
  <g transform="matrix(1.8350434303283691, 0.002577792853116989, -0.002577792853116989, 1.8350434303283691, -214.23434036001464, -284.553123589633)">
    <g fill="rgba(230, 171, 146, 1)">
      <path fill="rgba(230, 171, 146, 1)" d="M32 7V32L49.68 49.68A25 25 0 0 0 32 7Z" transform="matrix(-3.014084815979004, -1.2219048738479614, 1.2219048738479614, -3.014084815979004, 301.5788879394531, 374.2667541503906)" />
      <path fill="rgba(230, 171, 146, 1)" d="M32 7V32L49.68 49.68A25 25 0 0 0 32 7Z" transform="matrix(3.0145609378814697, 1.2207295894622803, -1.2207295894622803, 3.0145609378814697, 211.56057739257812, 102.70658111572266)" />
    </g>
    <g fill="rgb(255, 213, 128)" transform="matrix(1, 0, 0, 1, 0, 0)">
      <g fill="#ffffff" stroke="#ffffff" stroke-width="2">
        <path class="cls-1" d="M46.5 56C37.953 56 31 45.233 31 32S37.953 8 46.5 8 62 18.767 62 32s-6.953 24-15.5 24zm0-46C39.056 10 33 19.869 33 32s6.056 22 13.5 22S60 44.131 60 32s-6.056-22-13.5-22z" fill="#ffffff" transform="matrix(1.106375813484192, 0, 0, 1.106375813484192, 228.6168212890625, 203.0339813232422)" stroke="#ffffff" stroke-width="2" />
        <path class="cls-1" d="M17.5 56C8.953 56 2 45.233 2 32S8.953 8 17.5 8 33 18.767 33 32s-6.953 24-15.5 24zm0-46C10.056 10 4 19.869 4 32s6.056 22 13.5 22S31 44.131 31 32s-6.056-22-13.5-22z" fill="#ffffff" transform="matrix(1.106375813484192, 0, 0, 1.106375813484192, 213.6168212890625, 203.03396606445312)" stroke="#ffffff" stroke-width="2" />
      </g>
      <g fill="#c70000" stroke="#c70000" stroke-width="1">
        <path d="M32 22v20a10 10 0 0 0 0-20z" fill="#c70000" transform="matrix(2.6568801403045654, 0, 0, 2.6568801403045654, 172.37820434570312, 153.41783142089844)" stroke="#c70000" stroke-width="1" />
        <path d="M22 32a10 10 0 0 0 10 10V22a10 10 0 0 0-10 10z" fill="#c70000" transform="matrix(2.6568801403045654, 0, 0, 2.6568801403045654, 172.37820434570312, 153.41783142089844)" stroke="#c70000" stroke-width="1" />
      </g>
    </g>
    <g transform="matrix(0.7337801456451416, 0, 0, 0.7337801456451416, 208.9842071533203, 171.57101440429688)" fill="rgb(255, 213, 128)">
      <path fill="rgba(177, 3, 73, 1)" d="M87.13 149.965c-5.926-7.666-10.516-16.302-13.301-25.593-.313-2.087-2.296-2.687-3.935-1.55-5.79 4.017-8.211 12.338-4.578 17.951l1.88 2.988c.646 1.052-.639 2.16-1.63 1.46-11.416-5.556-18.112-16.119-22.784-28-3.091-7.852-5.775-22.676-17.294-21.028-1.461.21-2.582 1.625-2.416 3.05.938 8.12 4.404 35.848 9.67 51.959 3.413 10.451 15.101 19.789 22.998 25.117a17.251 17.251 0 0 1 7.584 14.31v36.889a4 4 0 0 0 4 4h32.181a4 4 0 0 0 4-4l-.088-46.528c.001-13.522-7.991-20.953-16.287-31.025z" transform="matrix(-0.006496839690953493, -0.5874189734458923, 0.5874189734458923, -0.006496839690953493, 46.95042419433594, 150.77947998046875)" />
      <path fill="rgba(177, 3, 73, 1)" d="M168.87 149.965c5.926-7.666 10.516-16.302 13.301-25.593.313-2.087 2.296-2.687 3.935-1.55 5.79 4.017 8.211 12.338 4.578 17.951l-1.88 2.988c-.646 1.052.639 2.16 1.63 1.46 11.416-5.556 18.112-16.119 22.784-28 3.091-7.852 5.775-22.676 17.294-21.028 1.461.21 2.582 1.625 2.416 3.05-.938 8.12-4.404 35.848-9.67 51.959-3.413 10.451-15.101 19.789-22.998 25.117a17.251 17.251 0 0 0-7.584 14.31v36.889a4 4 0 0 1-4 4h-32.181a4 4 0 0 1-4-4l.088-46.528c-.001-13.522 7.991-20.953 16.287-31.025z" transform="matrix(-0.006496839690953493, -0.5874189734458923, 0.5874189734458923, -0.006496839690953493, 47.269508361816406, 183.98199462890625)" />
    </g>
    <g transform="matrix(0.18670175969600677, 0, 0, 0.18670175969600677, 225.65882873535156, 206.6973114013672)" fill="rgb(255, 213, 128)">
      <g fill="rgba(244, 125, 165, 1)">
        <path fill="rgba(244, 125, 165, 1)" d="M245.058 42.674c2.243 2.815 4.717 5.778 7.789 7.711 3.679 2.316 9.349-1.584 7.724-5.919-2.494-6.652-9.566-12.977-16.585-14.583-2.244-.514-5.044 1.569-4.083 4.069A34.428 34.428 0 0 0 245.058 42.674Z" transform="matrix(1, 0, 0, 1, 0, 0)" />
        <path fill="rgba(244, 125, 165, 1)" d="M234.791 288.3c-7.137-3.464-14.649-3.186-22.433-3.833-8.564-.711-14.454-5.6-22.044-8.96a74.972 74.972 0 0 0-22.666-5.647c-6.75-.716-14.9-1.711-21.769-.28a2.3 2.3 0 0 0-2.648.77 3.936 3.936 0 0 0-.765 6.315c2.021 6.095 12.439 8.791 17.38 11.672 9.274 5.407 13.919 15.939 24.168 19.893 9.489 3.661 20.254 1.493 29.773-.91 5.656-1.428 11.539-2.725 17.091-4.525C238.947 300.18 245.489 293.493 234.791 288.3Z" transform="matrix(1, 0, 0, 1, 0, 0)" />
        <path fill="rgba(244, 125, 165, 1)" d="M284.181 212.3c-3.132 4.845-9.365 9.805-13.008 10.985-1.683.545-6.186 1.97-7.859.594-1.863-1.531 1.219-6.214 2.139-7.832 3.255-5.729 7.775-10.607 11.6-15.942a82.688 82.688 0 0 0 9.434-17.7c9.98-25.01 12.481-55.754 5.329-81.8-3.525-12.842-10.7-25.216-21.913-33.019-2.988-2.079-10.165-2.894-7.666 4.122 2.185 6.133 5.034 14.976 1.3 20.966-2.995 4.806-8.206 5.243-12.536 1.866-9.517-7.424-11.562-21.491-18.31-31.032-15.683-22.178-43.95-28.016-69.535-24.356-2.992.428-5.945 1.008-8.879 1.661-2.963.443-5.939.845-8.859 1.5-12.337 2.753-18.08 5.063-31.381 4.6-4.472-.155-8.94-.394-13.416-.4-8.344 0-16.9.712-24.818 3.5A43.176 43.176 0 0 0 57.462 62.041c-2.68 3.031-5.023 6.363-7.918 9.2a23.447 23.447 0 0 1-9.489 5.606 2.432 2.432 0 0 0-1.573.434 2.319 2.319 0 0 0-3 2.78c1.651 5.152 6.7 6.626 11.616 7.059 2.871.252 5.927-.068 8.7.866 4.11 1.382 4.024 4.864 2.926 8.176a151.579 151.579 0 0 0-10.262 16.528 155.023 155.023 0 0 0-14.293 37.766 151.506 151.506 0 0 0-3.652 43.722 131.489 131.489 0 0 0 2.008 16.31A64.561 64.561 0 0 0 36.012 226.8a73.221 73.221 0 0 0 4.167 10.208c1.3 2.617 5.579 3.2 7.5.964 9.177-10.7 22.332 8.94 24.674 16.5 3.311 10.686 1.966 22.35 7.089 32.548 5.49 10.93 17.142 14.261 28.232 16.7 13.719 3.016 27.742 5.4 41.575 1.664 5.274-1.425 4.519-8.259.608-9.99a4.426 4.426 0 0 0-3.629-1.447c-22.068.745-31.778-18.694-38.477-36.508a174.374 174.374 0 0 0-12.735-27.268c-7.213-12.238-7.022-29.242-5.5-34.06 2.08-6.6 5.776-13.614 11.472-17.808-.125 1.052-.216 2.106-.285 3.161-3.99 12.534.478 27.8 7.616 38.122a4.7 4.7 0 0 0 8.45-1.1c1.792-4.76 1.63-9.7 1.248-14.692-.38-4.971-1.013-10.175 1.97-14.516 2.7-3.922 6.872-6.648 10.178-10.012a53.917 53.917 0 0 0 8.621-12.284c4.651-8.541 9.371-17.553 18.985-21.358a19.1 19.1 0 0 1 7.947-1.266 7.582 7.582 0 0 1 4.86 13.034c-12.962 12.691-20.1 30.546-20.895 48.8-.549 12.663 2.689 24.062 11.566 33.344a90.021 90.021 0 0 0 14.232 11.673c10.394 7.133 26.113 10.815 33.1 12.049a76.873 76.873 0 0 0 35.9-1.85c11.953-3.685 22.063-10.806 31.319-19.033 8.337-7.411 15.585-16.481 15.877-28.067C291.813 208.888 286.034 209.438 284.181 212.3Z" transform="matrix(1, 0, 0, 1, 0, 0)" />
        <path fill="rgba(244, 125, 165, 1)" transform="matrix(0.9972501993179321, -0.07410848885774612, 0.07410848885774612, 0.9972501993179321, -20.598247528076172, 20.455917358398438)" data-cx="267.076" data-cy="289.518" data-rx="10.25" data-ry="8.269" d="M256.826 289.518 C256.826 284.9511574039038 261.41508131455004 281.24899999999997 267.076 281.24899999999997 C272.73691868545 281.24899999999997 277.326 284.9511574039038 277.326 289.518 C277.326 294.08484259609617 272.73691868545 297.787 267.076 297.787 C261.41508131455004 297.787 256.826 294.08484259609617 256.826 289.518 Z" />
        <path fill="rgba(244, 125, 165, 1)" transform="matrix(0.997292697429657, -0.07353410124778748, 0.07353410124778748, 0.997292697429657, -19.317012786865234, 4.367992877960205)" data-cx="49.658" data-cy="264.498" data-rx="8.491" data-ry="8.844" d="M41.167 264.498 C41.167 259.6135936727688 44.9685501894482 255.654 49.658 255.654 C54.3474498105518 255.654 58.149 259.6135936727688 58.149 264.498 C58.149 269.3824063272312 54.3474498105518 273.342 49.658 273.342 C44.9685501894482 273.342 41.167 269.3824063272312 41.167 264.498 Z" />
        <path fill="rgba(244, 125, 165, 1)" d="M293.879 197.26c1.338 5.631 8.157 5.631 9.006 5.631 6.631-.548 8.852-4.9 9.5-7.283a14.006 14.006 0 0 0 .03-7.235 9.867 9.867 0 0 0-9.615-7.24 11.052 11.052 0 0 0-4.695 1.268C295.12 183.974 292.177 190.1 293.879 197.26zm6.4-8.128a3.18 3.18 0 0 1 2.449-1.888 3.62 3.62 0 0 1 3.671 2.672c.354 1.377.606 8.045-4.747 6.616C297.967 195.548 299.493 190.841 300.277 189.132zM251.193 53.014c2.973 2.174 8.054.475 9.713-.877a7.732 7.732 0 0 0 2.574-8.761c-2.9-7.745-10.81-14.693-18.8-16.521a6.924 6.924 0 0 0-6.6 2.215 5.83 5.83 0 0 0-1.079 6C238.193 38.16 244.293 47.97 251.193 53.014zM245 33.921c3.541 1.687 10.495 5.745 12.666 11.635a1.612 1.612 0 0 1-.683 1.766 2.288 2.288 0 0 1-2.478.435c-2.633-1.658-4.909-4.376-7.015-7.019a34.077 34.077 0 0 1-3.652-5.607A.884.884 0 0 1 245 33.921zM168.111 299.692c4.147 4.418 8.435 8.986 14.785 11.436a34.485 34.485 0 0 0 12.515 2.171c6.566 0 13.135-1.452 19.136-2.967 1.356-.343 12.967-3.181 17.289-4.582 5.384-1.745 11.267-5.5 11.635-10.79.18-2.6-.944-6.357-7.324-9.454-6.3-3.061-12.808-3.454-19.1-3.833-1.468-.089-11.238-1.023-18.707-5.581a58.335 58.335 0 0 0-6.771-3.425c-6.78-3-24.695-6.013-24.695-6.013-6.657-.712-14.174-1.516-20.976-.244 0 0-4.831.983-6.276 3.695-2.152 4.04-.188 8.457-.188 8.457s2.491 5.853 14.266 10.27a30.741 30.741 0 0 1 4.578 2.188C162.017 293.2 164.977 296.352 168.111 299.692zm-11.9-16.543c-4.345-1.919-9.537-4.388-10.8-7.462-.88-2.146.709-2.985 1.1-3.066 6.019-1.254 13.288-.477 19.7.209 0 0 16.66 2.78 22.84 5.517a37.572 37.572 0 0 1 6.333 3.21c8.34 5.821 19.772 6.226 21.286 6.317 5.947.359 11.564.7 16.759 3.22 2.912 1.414 3.887 2.734 3.839 3.436-.1 1.44-2.939 3.88-7.352 5.31-4.1 1.331-15.523 4.122-16.895 4.468-8.933 2.255-19.194 4.38-27.894 1.024-5.028-1.94-8.653-5.8-12.491-9.891-3.3-3.517-6.714-7.154-11.231-9.787A54.136 54.136 0 0 0 156.213 283.149z" transform="matrix(1, 0, 0, 1, 0, 0)" />
        <path fill="rgba(244, 125, 165, 1)" d="M29.45 210.92a67.649 67.649 0 0 0 3.623 16.891A76.112 76.112 0 0 0 37.4 238.394a7.581 7.581 0 0 0 5.955 4.008 7.505 7.505 0 0 0 6.684-2.4c1.871-2.179 3.468-2.178 4.648-1.933 5.861 1.214 13.041 11.968 14.7 17.329a75.5 75.5 0 0 1 2.409 13.2c.811 6.593 1.649 13.41 4.871 19.826 6.079 12.1 18.849 15.812 30.34 18.339 8.7 1.912 17.76 3.66 27 3.66a61.19 61.19 0 0 0 16.055-2.031 7.916 7.916 0 0 0 6.02-7.159c.263-3.449-1.108-10.7-9.956-10.382-15.791.562-24.145-10.961-30.844-23.459-1.079-2.013-11.55-30.675-17.768-39.061-7.838-10.571-6.183-27.64-5.036-31.278a42.826 42.826 0 0 1 3.721-8.534c-.979 12.418 4.105 24.947 9.564 32.843a7.8 7.8 0 0 0 7.439 3.469 8.028 8.028 0 0 0 6.473-5.242c2.042-5.424 1.365-16.957 1.365-16.957-.344-4.331-.669-8.422 1.506-11.587 1.5-2.184 8.557-8.3 9.833-9.593 4.112-4.184 9.463-13.581 9.463-13.581 4.491-8.254 8.73-16.049 17.071-19.351a15.941 15.941 0 0 1 6.642-1.053 4.343 4.343 0 0 1 3.94 2.86 4.435 4.435 0 0 1-1.091 4.853c-13.022 12.751-20.978 31.3-21.826 50.884-.622 14.369 3.733 26.192 12.426 35.626 19.079 20.7 43.974 23.739 49.039 24.633a80.162 80.162 0 0 0 37.353-1.939c10.788-3.326 21.1-9.58 32.468-19.68 7.093-6.306 16.565-16.31 16.919-30.311.088-3.494-1.6-6.117-4.506-7.015a7.923 7.923 0 0 0-8.7 3.246 26.913 26.913 0 0 1-12.234 9.99 1.432 1.432 0 0 1-1.654-2.109 104.639 104.639 0 0 1 7.595-10.944c1.431-1.819 2.91-3.7 4.3-5.635a85.418 85.418 0 0 0 9.8-18.359c10.549-26.439 12.582-57.757 5.438-83.777-4.079-14.864-12.3-27.2-23.134-34.747-2.553-1.775-7.6-3.169-10.824-.7-1.333 1.018-3.305 3.466-1.541 8.417 1.532 4.3 4.72 13.258 1.592 18.281-.621 1-3.717 4.352-7.989 1.06-5.19-4-7.939-10.426-10.876-17.2-1.957-4.513-3.98-9.179-6.808-13.179a60.572 60.572 0 0 0-34.327-23.53 95.281 95.281 0 0 0-38.245-2.1c-2.736.394-22.59 4.278-24.7 4.787-8.189 1.981-19.192 2.95-37.337 2.541h-.015c-10.5 0-18.709 1.167-25.833 3.673a46.227 46.227 0 0 0-19.645 12.9c-1.056 1.2-6.091 7.4-7.765 9.043-2.194 2.152-5 4.681-13.595 6.721-1.92.456-1.853 3.372-1.246 5.263 2.621 8.18 11.413 8.952 14.3 9.206 1 .088 6.525.224 7.986.716.961.323 2.045.688 1.1 3.83a155.153 155.153 0 0 0-10.187 16.466 157.75 157.75 0 0 0-14.578 38.525 154.18 154.18 0 0 0-3.728 44.619A135.924 135.924 0 0 0 29.45 210.92Zm7.75-59.755a151.61 151.61 0 0 1 14.007-37.007c2.267-4.239 7.162-11.892 9.357-15.283a11.529 11.529 0 0 0 1.88-5.285A7.827 7.827 0 0 0 56.8 85.045a25.426 25.426 0 0 0-6.871-.9c-4.364-.252-8.748-1.449-9.988-2.6a.923.923 0 0 1 .378-1.557c6.247-1.819 8.656-3.823 11.405-6.519 1.926-1.889 7.1-8.265 8.069-9.363A40.1 40.1 0 0 1 76.839 52.946c6.442-2.266 14-3.321 23.772-3.321h.015c19.212 1 30.422-.688 38.8-2.714 2.082-.5 21.555-4.309 24.177-4.684.042-.006.085-.013.126-.021A90.478 90.478 0 0 1 199.3 44.184 54.437 54.437 0 0 1 230.161 65.3c2.456 3.474 4.266 7.646 6.181 12.063 3.117 7.189 6.244 14.747 12.754 19.625a11.584 11.584 0 0 0 17.083-2.673c4.046-7.118 1.544-17.538-1.014-23.65-.882-2.109 1.221-2.157 2.965-.53 8.6 8.014 17 17.826 20.693 31.292 6.8 24.76 4.847 54.6-5.219 79.83a79.287 79.287 0 0 1-9.073 17.04c-1.308 1.823-2.745 3.648-4.134 5.414a99.446 99.446 0 0 0-7.962 11.347c-1.569 2.646-4.819 8.159-1.094 11.222 2.655 2.186 6.945 1.208 10.79-.038 4.619-1.5 11.333-7.109 14.659-12.254a1.91 1.91 0 0 1 1.64-.7 1.736 1.736 0 0 1 .14.944c-.222 8.819-4.937 17.025-14.836 25.825-10.675 9.489-20.262 15.331-30.171 18.386a73.93 73.93 0 0 1-34.442 1.759c-3.384-.6-31.734-5.5-45.63-22.81-7.028-8.754-11.262-18.274-10.708-31.063.78-18.028 8.058-35.055 19.965-46.713a10.689 10.689 0 0 0-6.871-18.356 22.162 22.162 0 0 0-9.252 1.48c-10.435 4.13-15.645 13.708-20.241 22.158 0 0-4.887 8.582-8.438 12.195-1.1 1.12-8.571 7.589-10.522 10.429-3.423 4.981-2.974 10.621-2.578 15.6 0 0 .609 10.038-.987 14.275a1.8 1.8 0 0 1-1.418 1.267 1.659 1.659 0 0 1-1.57-.838c-6.3-9.111-11.257-23.688-7.212-35.413 1.617-4.686-.042-6.166-1.112-6.788a3.107 3.107 0 0 0-3.405.184c-5.449 4.013-9.92 10.894-12.591 19.375-1.632 5.178-3.33 24.3 5.97 36.845 5.683 7.663 16 35.894 17.283 38.3 7.28 13.583 17.277 27.312 36.53 26.734 3.957-.119 3.632 2.643 3.552 3.7a1.725 1.725 0 0 1-1.445 1.635c-13.406 3.621-27.159 1.145-40.1-1.7-10.557-2.321-21.269-5.4-26.123-15.06-2.739-5.454-3.477-11.449-4.258-17.795a81.051 81.051 0 0 0-2.641-14.279c-2.028-6.548-10.47-19.728-19.374-21.573a11.021 11.021 0 0 0-2.233-.233 10.806 10.806 0 0 0-8.391 4.205 1.469 1.469 0 0 1-1.2.284 1.547 1.547 0 0 1-1.159-.609 69.867 69.867 0 0 1-3.989-9.772c-.014-.041-.028-.081-.043-.122a61.467 61.467 0 0 1-3.3-15.531l-.04-.287a129.608 129.608 0 0 1-1.96-15.928A148.049 148.049 0 0 1 37.2 151.165Z" transform="matrix(1, 0, 0, 1, 0, 0)" />
        <path fill="rgba(244, 125, 165, 1)" d="M57.608 208.606a8.3 8.3 0 0 0 5.226 1.859 9.17 9.17 0 0 0 2.775-.443 11.877 11.877 0 0 0 7.546-7.852 25.162 25.162 0 0 0 .2-11.721 8.6 8.6 0 0 0-6.368-6.58 8.881 8.881 0 0 0-9.14 2.417 20.311 20.311 0 0 0-4.62 13.907A11.739 11.739 0 0 0 57.608 208.606zm4.887-18.2h0c2.359-2.185 4.649-.277 4.752 1.169.26 3.623.642 6.468-.054 8.85-.481 1.645-1.611 5.331-5.718 3.317-1.413-.692-1.9-2.316-2.058-4.088A14.154 14.154 0 0 1 62.5 190.409zM69.244 162.908a8.089 8.089 0 0 0 4.164 1.048 13.975 13.975 0 0 0 6.544-1.8c6.3-3.413 10.2-8.961 13.967-14.326 0 0 9.112-12.858 13.433-17.784 5.047-5.751 9.684-9.764 14.592-12.629 3.186-1.86 17.416-7.671 20.895-9.667a7.563 7.563 0 0 0 3.213-9.683 7.648 7.648 0 0 0-9.216-4.639 17.435 17.435 0 0 1-11.742-.88l-.142-.057c-4.154-1.682-8.449-3.423-13.61-3.107-8.673.529-16.579 5.485-23.5 14.731-9.916 13.253-21.739 33.2-21.751 52.943A6.506 6.506 0 0 0 69.244 162.908zM92.82 107.836c5.9-7.618 12.12-12.251 18.9-12.251 4.239 0 7.357 1.229 10.9 2.664l.142.058a23.581 23.581 0 0 0 15.689 1.119 1.515 1.515 0 0 1 1.859 1.014 1.413 1.413 0 0 1-.563 1.921c-3.12 1.79-17.373 7.61-20.936 9.691-5.5 3.212-10.629 7.628-16.129 13.9-4.534 5.167-13.848 18.31-13.848 18.31-3.51 5-6.826 9.718-11.842 12.434a9.351 9.351 0 0 1-2.188.871 2.127 2.127 0 0 1-2.641-1.947C71.867 150.183 72.983 133.44 92.82 107.836zM186.076 223.894c8.226 9 18.928 12.866 26.347 12.866 12.58 0 21.527-6.181 25.9-9.618 8.187-6.438 14.234-16.847 17.025-29.311 2.538-11.33 2.447-23.935-.232-32.111-3.463-10.573-10.373-17.808-17.752-24.893a132.253 132.253 0 0 1-19.025-23.112c-3.058-4.684-5.677-9.085-8.009-13.456-.509-.953-4.292-10.161-12.328-7.228a7.092 7.092 0 0 0-4.211 8.04c1.763 9.451 5.732 18.075 9.57 26.415 4.294 9.332 8.351 18.146 9.564 28a86.965 86.965 0 0 1 .606 14.5c-.018.4-.291 8.189-2.143 9.769a5.024 5.024 0 0 1-5.722.294c-3.5-2.363-1.5-9.543-3.622-11.806-1.025-1.094-3.751-3.531-8.939-.788-12.267 6.487-16.594 22.93-14.527 35.819A31.944 31.944 0 0 0 186.076 223.894zM194.4 177.2a2.051 2.051 0 0 1 3.2 1.538c.219 3 1.1 7.392 4.2 10.179 3.616 3.255 9.791 2.841 13.622-.429 3.933-3.355 4.3-13.84 4.317-14.215a93.278 93.278 0 0 0-.646-15.541c-1.332-10.817-5.783-20.489-10.087-29.842-3.849-8.364-7.484-16.264-9.106-24.957-.156-.838 1.007-1.236 2.112-.469a13.113 13.113 0 0 1 2.84 3.721c2.418 4.532 5.128 9.088 8.287 13.927a138.4 138.4 0 0 0 19.925 24.2c7.049 6.768 13.129 13.122 16.151 22.346 2.319 7.079 2.348 18.661.073 28.819-2.479 11.072-7.737 20.23-14.8 25.785-3.754 2.952-11.721 7.688-19.69 8.155-6.646.389-17.206-2.829-23.9-10.45A27.123 27.123 0 0 1 184.71 206.3C183.193 196.838 184.994 183.508 194.4 177.2zM247.131 135.966a7.854 7.854 0 0 0 9-1.485 7.506 7.506 0 0 0 1.352-8.825c-6.039-12.474-12.169-18.977-19.293-20.466a7.5 7.5 0 0 0-6.094 1.006 6.114 6.114 0 0 0-2.462 4.468c-.537 5.021 3.677 11.864 5.979 14.781C238.713 129.375 242.508 133.7 247.131 135.966zm-11.321-24.64a1.11 1.11 0 0 1 .016-.117 2.855 2.855 0 0 1 1.092.062c4.944 1.034 9.982 6.784 14.972 17.091a1.366 1.366 0 0 1-.143 1.715 1.646 1.646 0 0 1-1.881.311c-3.507-1.719-6.708-5.409-9.379-8.793C238.086 118.554 235.575 113.515 235.81 111.326zM267.912 300.863c7.365 0 12.946-6.071 12.485-12.327s-6.811-10.9-14.157-10.362-12.946 6.071-12.484 12.327C254.192 296.424 258.432 300.863 267.912 300.863zM266.7 284.37h0c5.355 0 7.31 2 7.5 4.622.2 2.792-2.884 5.391-6.747 5.675s-7.3-1.832-7.5-4.623S262.834 284.654 266.7 284.37zM49.7 276.447c8.9-.724 16.626-9.7 7.561-20.938 0 0-2.594-3.447-8.483-2.93h0a11.969 11.969 0 0 0 .923 23.868zm-.465-17.672a5.18 5.18 0 0 1 3.873 1.355c1.123 1.009 4.043 9.509-3.029 10.09a5.75 5.75 0 0 1-.844-11.445z" transform="matrix(1, 0, 0, 1, 0, 0)" />
      </g>
      <path fill="#c11646" d="M60.171 188.347c-3.192 3.6-6.569 13.1-.629 17.828 3.894 3.1 9.324-.4 10.632-4.876a22.383 22.383 0 0 0 .127-10.286C69.5 186.671 63.07 185.079 60.171 188.347zM78.472 159.424c6.222-3.37 10-9.288 13.986-14.913A200.908 200.908 0 0 1 105.017 128a63.185 63.185 0 0 1 15.36-13.263c6.659-3.887 14.225-5.84 20.916-9.678 4.658-2.671 1.551-10.029-3.649-8.629a20.633 20.633 0 0 1-13.716-1c-4.083-1.653-7.885-3.218-12.4-2.942-9.006.549-16.038 6.594-21.2 13.491C79.687 120.2 69.212 139.147 69.2 157.06 69.2 161.31 74.021 161.835 78.472 159.424zM252.315 197.152c2.366-10.563 2.365-22.78-.153-30.465-3.229-9.858-9.621-16.581-16.951-23.619a135.2 135.2 0 0 1-19.475-23.655c-2.914-4.464-5.639-8.989-8.148-13.691-.465-.87-2.13-3.731-3.9-4.87-2.529-3.162-7.6-.371-6.848 3.65 3.587 19.229 16.754 35.038 19.163 54.608a90.228 90.228 0 0 1 .625 15.022c-.172 3.834-.014 9.249-3.229 11.992a7.92 7.92 0 0 1-9.672.362c-2.083-1.658-2.648-3.765-3.041-6 .024-.031 1.39-10.257-6.135-6.278-10.748 5.684-14.8 20.775-12.911 32.581a32.134 32.134 0 0 0 6.839 15.141 24.245 24.245 0 0 0 4.575 4.3c5.967 5.177 14.417 8.163 22.1 7.264a27.717 27.717 0 0 0 7.378-1.931A37.786 37.786 0 0 0 236.4 224.7C244.878 218.035 249.98 207.582 252.315 197.152zM248.5 133.177a4.581 4.581 0 0 0 6.187-6.167c-5.911-12.213-11.531-17.609-17.132-18.779-2.532-.529-4.565.275-4.832 2.764-.4 3.692 3.095 9.7 5.328 12.525C240.85 127.069 244.388 131.162 248.5 133.177z" transform="matrix(1, 0, 0, 1, 0, 0)" />
      <path fill="rgb(255, 213, 128)" d="M309.406 189.145a6.78 6.78 0 0 0-6.467-4.909 7.976 7.976 0 0 0-3.386.913c-1.558.82-4.323 5.408-2.682 11.275.442 1.581 2.46 2.766 4.092 3.137a6.951 6.951 0 0 0 5.277-.688 7.1 7.1 0 0 0 3.147-4.08A10.98 10.98 0 0 0 309.406 189.145Z" transform="matrix(1, 0, 0, 1, 0, 0)" />
    </g>
    <g transform="matrix(-0.7337799072265625, 0.0005565703613683581, -0.0005565703613683581, -0.7337799072265625, 303.73187255859375, 305.2256774902344)" fill="rgb(255, 213, 128)">
      <path fill="#b10349" d="M87.13 149.965c-5.926-7.666-10.516-16.302-13.301-25.593-.313-2.087-2.296-2.687-3.935-1.55-5.79 4.017-8.211 12.338-4.578 17.951l1.88 2.988c.646 1.052-.639 2.16-1.63 1.46-11.416-5.556-18.112-16.119-22.784-28-3.091-7.852-5.775-22.676-17.294-21.028-1.461.21-2.582 1.625-2.416 3.05.938 8.12 4.404 35.848 9.67 51.959 3.413 10.451 15.101 19.789 22.998 25.117a17.251 17.251 0 0 1 7.584 14.31v36.889a4 4 0 0 0 4 4h32.181a4 4 0 0 0 4-4l-.088-46.528c.001-13.522-7.991-20.953-16.287-31.025z" transform="matrix(-0.006496839690953493, -0.5874189734458923, 0.5874189734458923, -0.006496839690953493, 46.95042419433594, 150.77947998046875)" />
      <path fill="rgba(177, 3, 73, 1)" d="M168.87 149.965c5.926-7.666 10.516-16.302 13.301-25.593.313-2.087 2.296-2.687 3.935-1.55 5.79 4.017 8.211 12.338 4.578 17.951l-1.88 2.988c-.646 1.052.639 2.16 1.63 1.46 11.416-5.556 18.112-16.119 22.784-28 3.091-7.852 5.775-22.676 17.294-21.028 1.461.21 2.582 1.625 2.416 3.05-.938 8.12-4.404 35.848-9.67 51.959-3.413 10.451-15.101 19.789-22.998 25.117a17.251 17.251 0 0 0-7.584 14.31v36.889a4 4 0 0 1-4 4h-32.181a4 4 0 0 1-4-4l.088-46.528c-.001-13.522 7.991-20.953 16.287-31.025z" transform="matrix(-0.006496839690953493, -0.5874189734458923, 0.5874189734458923, -0.006496839690953493, 47.269508361816406, 183.98199462890625)" />
    </g>
  </g>
  <path text="PROMETHEE" fill="#ffffff" space="preserve" text-anchor="middle" offset="0.5" font-scale="contain" font-size="48" font-family="Salsa" transform="matrix(2.068410873413086, 0, 0, 2.068410873413086, 251.64971241848252, 454.4656054200241)" stroke="#000000" stroke-width="1" font-weight="400" font-style="normal" path="M-139.50357064499147 -65.75556614431292C-45.60898016012965 28.139024340548872 48.28561032473215 28.139024340548872 142.18020080959394 -65.75556614431292" data-fl-textpath="" d="M-98.77921238073458-71.94550189192208L-98.77921238073458-71.94550189192208Q-93.43085264532563-70.0531889842199 -88.91070112663185-66.48305869975543Q-84.39054960793807-62.912928415290985 -82.92705020271264-58.63500023790127Q-81.47139828276273-54.36327020336654 -84.59526228166914-50.40813762450948Q-87.71912628057554-46.453005045652425 -92.63094655263735-45.9616583096679Q-97.55061430997468-45.47650971653836 -101.46650946245418-48.569383001169896L-101.46650946245418-48.569383001169896Q-104.33084158801535-50.83170514323504 -102.60775787433285-53.01330604982684L-102.60775787433285-53.01330604982684Q-102.06851944595019-53.6960372687962 -101.20668323250544-54.23865899817609L-101.20668323250544-54.23865899817609Q-100.39724700375821-53.166085927662266 -99.57326104982967-52.51528092789009L-99.57326104982967-52.51528092789009Q-96.97574342363585-50.463695642894024 -94.50576144191854-50.832055534836456Q-92.03742880262178-51.21446105490938 -90.02923051761051-53.757046284174635Q-88.02103223259925-56.299631513439884 -88.46996798165634-58.667596186575565Q-88.92055307313396-61.04960648784172 -91.47883327295023-63.07020105856292L-91.47883327295023-63.07020105856292Q-92.79721079923591-64.1114890581984 -95.04009955094676-65.14388919741234L-95.04009955094676-65.14388919741234Q-98.99520827585022-60.74940231335039 -101.82156141771792-57.17094902771781L-101.82156141771792-57.17094902771781Q-109.73658984351847-47.149710330891494 -112.49098088615708-42.04898195307797L-112.49098088615708-42.04898195307797Q-114.05113841889855-42.54214366390925 -115.40875337156179-43.61442237781959Q-116.76636832422503-44.68670109172992 -117.08120324016775-46.3370886146176Q-117.38984001325554-47.99532362278079 -116.26177801365044-49.42356594292362Q-115.12751787119038-50.85965574834195 -111.94307986466312-54.117055721109296Q-108.75244371528088-57.382303179152146 -107.06035071587324-59.52466665936639L-107.06035071587324-59.52466665936639Q-101.87870328911579-66.08516434969277 -98.77921238073458-71.94550189192208ZM-75.07664776329653-34.848045382463326L-75.07664776329653-34.848045382463326Q-75.63803206858087-29.833661306449557 -74.6164687234277-25.192475215390573Q-73.59490537827452-20.55128912433158 -71.34825968005879-17.98610236569414L-71.34825968005879-17.98610236569414Q-72.4107354732219-16.268096198958293 -73.88233440765363-15.88482530757802Q-75.36769810426307-15.498309216328568 -77.0431793658817-16.534486103720322L-77.0431793658817-16.534486103720322Q-79.20344454583667-17.87047051690563 -80.2456003597239-22.38329792991192Q-81.29626115463459-26.901385124072483 -80.99282482403972-31.992988642933227Q-80.70315325562255-37.0813469619248 -79.27528206602362-40.207716080553205L-79.27528206602362-40.207716080553205Q-76.33255863191172-38.3878318011748 -73.46288835014306-38.78832209310923Q-70.5932180683744-39.18881238504368 -68.79963269476735-42.089010914038354L-68.79963269476735-42.089010914038354Q-66.52740723612148-45.763162716166505 -71.09458204571132-48.587665196011024L-71.09458204571132-48.587665196011024Q-72.56594376276728-49.49760733570023 -74.9972563255763-50.31926372490865L-74.9972563255763-50.31926372490865Q-78.6862588873188-44.981608799807425 -80.7796517867194-41.59662635247639L-80.7796517867194-41.59662635247639Q-87.49639232072585-30.735765585537393 -89.64922925747115-25.35344330572313L-89.64922925747115-25.35344330572313Q-91.25555866100603-25.66490092296708 -92.72692037806199-26.57484306265629Q-94.19828209511795-27.484785202345495 -94.69983875812541-29.088325321517075Q-95.19613563997862-30.700370421712098 -94.23885546990095-32.24827696797905Q-93.27631551866902-33.804688495269446 -90.48539556665806-37.40497540348484Q-87.68921583349284-41.013767292723685 -86.25329557837634-43.335627112124115L-86.25329557837634-43.335627112124115Q-81.83507940878714-50.479811171817744 -79.42104003786032-56.66473751863993L-79.42104003786032-56.66473751863993Q-72.97357128920754-54.77028595284429 -67.99815739049234-51.69331397759466L-67.99815739049234-51.69331397759466Q-58.88932271438296-46.060088361368436 -62.90253573509315-39.57078784048006L-62.90253573509315-39.57078784048006Q-64.66982220292884-36.71311421660261 -68.16585309793902-35.39486993683716Q-71.65662421179493-34.08513063809516 -75.07664776329653-34.848045382463326ZM-42.860644459865696-20.445700473466566L-42.860644459865696-20.445700473466566Q-40.6613008179855-25.715139489616305 -41.45186296365831-29.87023413280185Q-42.24242510933113-34.02532877598739 -46.801274275667325-35.92808842412893L-46.801274275667325-35.92808842412893Q-49.5513492788418-37.075906997299334 -52.41342450293188-36.18994683360704L-52.41342450293188-36.18994683360704Q-54.39117316800941-34.82652825599264 -56.383669359663266-31.9738875624869Q-58.380017291495534-29.112018429373194 -59.56250152627175-26.278887469727014L-59.56250152627175-26.278887469727014Q-61.74643820743826-21.046362212009146 -60.937340498448265-17.013564064654496Q-60.124391049279836-12.989994356907808 -55.51017124529583-11.064124267695721L-55.51017124529583-11.064124267695721Q-52.990807232320556-10.01259919898592 -50.37156398833738-11.303321798481443L-50.37156398833738-11.303321798481443Q-45.687821750829045-13.672025801218043 -42.860644459865696-20.445700473466566ZM-58.76462190165031-7.5245549541557395Q-65.22452962722792-10.220773079052663 -66.80570264134742-15.908654222274643Q-68.39072739564537-21.58730692588866 -65.49807052164881-28.517865071472645Q-62.60541364765226-35.44842321705663 -56.336485506860654-38.75924486214583Q-50.063705625890634-42.079294946843 -43.61302633992099-39.386928562124496Q-37.17157549355932-36.69841391758443 -35.59890778147283-30.938230216749822Q-34.01315988959996-25.18342321534476 -36.91737198413179-18.225179750936874Q-39.81773233848519-11.276164726136955 -46.06122325727894-8.052250777697884Q-52.29548573646473-4.824485089080394 -58.76462190165031-7.5245549541557395ZM-0.45860249340572956-25.54107253985409L-0.45860249340572956-25.54107253985409L-1.9789717822138715-17.76466737900701Q-3.037245682614998-11.320991692589379 -3.488648409776856-6.166000365932189Q-3.9499189404401167-1.012629673119413 -3.6064961132767475 5.16468857688059L-3.6064961132767475 5.16468857688059Q-4.783610625388153 5.853020927839574 -7.06307323421277 5.47865450978037L-7.06307323421277 5.47865450978037Q-11.464113595839514 4.755851815172557 -10.833687030363192 0.91727625312591L-10.833687030363192 0.91727625312591Q-10.311842932462483-2.2601564743265845 -8.933081418918087-8.74240274308009Q-7.554319905373685-15.224649011833597 -6.946582213719133-18.925075324860572L-6.946582213719133-18.925075324860572Q-10.11008101223765-15.64439317753634 -13.812132990720412-10.688849700922312Q-17.525673406548993-5.7250590546512905 -17.728252637100507-4.491583616975633Q-17.929211233807614-3.26797598280138 -17.802587051193917-2.5580701324399318L-17.802587051193917-2.5580701324399318Q-18.957156689918484-2.068714485353466 -20.684022302664406-2.3523254081255898Q-22.410887915410328-2.6359363308977137 -23.419707879512583-3.7744802606732515Q-24.418660040113433-4.911403556604377 -24.92595003086321-6.697224618549019Q-25.443107825114392-8.484666314338074 -26.609448870443266-13.662131772067479Q-27.775789915772144-18.839597229796883 -28.80891687173489-22.606830789434927L-28.80891687173489-22.606830789434927Q-31.293521637296717-15.191465716901584 -32.25941940856635-9.310254830064048Q-33.22369654599157-3.4389117467279173 -33.44673390152626 0.26389183137828365L-33.44673390152626 0.26389183137828365Q-35.05050460021716 0.5882674562647328 -36.57014633943357 0.3386898442252635L-36.57014633943357 0.3386898442252635Q-39.599562014364984-0.15884474600926257 -39.10202742413046-3.188260420940678L-39.10202742413046-3.188260420940678Q-38.72117847069361-5.507194243770915 -36.51452946607569-12.279099453563708Q-34.309501095302195-19.041136859855094 -33.52349368076231-23.82702155803665Q-32.73910690006683-28.603038452716795 -32.57657236945498-32.86301292756506L-32.57657236945498-32.86301292756506Q-29.912228795015398-33.10441159645647 -28.49126509081304-32.87104032286113L-28.49126509081304-32.87104032286113Q-25.886164966442053-32.44319298793632 -25.281385573217836-30.44881541948762L-25.281385573217836-30.44881541948762Q-24.351473923872362-27.22549968496648 -22.6581072807909-20.258971897603605Q-20.954872834208032-13.290823476396323 -19.773728825724206-9.499280409092094L-19.773728825724206-9.499280409092094Q-19.136390239371124-10.418138138202242 -16.86823292259155-13.430373584899478Q-14.60169623965639-16.432741228095303 -13.051584571520479-18.59004366778912Q-11.512961340730385-20.73909893782595 -9.766032975245947-23.786268326925587Q-8.02897241326291-26.835058349869637 -7.296411802334157-29.197568657003913L-7.296411802334157-29.197568657003913Q-5.511491372059265-29.390853569988064 -3.8833037943273965-29.123448985660062Q-2.24524841309412-28.854423767487646 -1.2271366472301901-27.95756902327907Q-0.2090248813662603-27.0607142790705 -0.45860249340572956-25.54107253985409ZM 22.554867191682963-3.1579834165588796L 22.554867191682963-3.1579834165588796Q 23.2186042351864-1.9136148469295637  23.339015016147737-0.2880684022444908Q 23.460164513556684 1.3474507200153374  22.42965444955514 2.5969902383946195Q 21.389910424426454 3.857241150796271  19.76436397974138 3.9776519317576047L 19.76436397974138 3.9776519317576047Q 14.688271094191057 4.3536586035939155  3.8250703716201273 4.576750649920986L 3.8250703716201273 4.576750649920986Q 2.963726517953115 4.590416876542148  2.2486486204889946 4.142015716242252Q 1.543543400599629 3.6928758394947403  1.4866622341332323 2.924979666238601L 1.4866622341332323 2.924979666238601Q 1.298289539991269 0.3819468846760635  1.2609845861964388-5.671837744828223Q 1.2229409159539932-11.735595051907266  0.8343760645082181-16.981223456228424Q 0.44654992951005856-22.216879182974825 -1.0644951228140014-28.943634927748597L-1.0644951228140014-28.943634927748597Q 2.497228193204892-28.916671616984218  8.480834738057922-29.359901485553543Q 14.464441282910954-29.80313135412287  19.855227585359412-31.074832199972256L 19.855227585359412-31.074832199972256Q 20.511946828142456-30.06057393100993  20.619799429494325-28.60456300509569Q 20.72839074729381-27.1385794016067  19.684953139927043-25.92819187707882Q 18.640776816112663-24.7277770301257  16.99528501627808-24.605888816269136Q 15.339820538868743-24.483261885964954  11.694252867321866-24.69453505551637Q 8.038712518200237-24.90506950862017  6.323411975342369-24.778010279630294L 6.323411975342369-24.778010279630294Q 6.29275502702046-19.91245171441709  6.558323562278521-15.65042480775861L 6.558323562278521-15.65042480775861Q 9.60146764441015-15.58504824171822  13.071959440424912-15.842121565488428Q 16.542451236439664-16.099194889258637  18.951037591344505-17.29037571976517L 18.951037591344505-17.29037571976517Q 19.607756834127542-16.276117450802836  19.715609435479415-14.820106524888597Q 19.824200753278898-13.354122921399604  18.783718011702593-12.103844686572709Q 17.74397398657391-10.843593774171055  16.18823628491212-10.72835400834303Q 14.632498583250333-10.613114242515007  11.5265635809436-10.984688947582338Q 8.420628578636869-11.35626365264967  6.844945521825571-11.239546453926414L 6.844945521825571-11.239546453926414Q 7.404892589118152-3.6802568522620858  7.9969740044362-0.15436127842060077L 7.9969740044362-0.15436127842060077Q 10.31469813670931-0.1355239038994448  11.601173543852713-0.2308183256418498L 11.601173543852713-0.2308183256418498Q 17.923851126247413-0.6991645534301033  22.554867191682963-3.1579834165588796ZM 20.535673567780464-30.93330028969808L 20.535673567780464-30.93330028969808L 30.377502395447618-33.33640355982608Q 37.99636473611554-35.30867043678569  41.38453916493402-36.78487301092672L 41.38453916493402-36.78487301092672Q 42.14105733048377-35.93741784090695  42.46684474345041-34.678901825294716Q 42.790126099394236-33.43006670211026  41.93745340057211-32.13505733199614Q 41.08227464472716-30.849728854309788  39.50428917899797-30.441241559590075L 39.50428917899797-30.441241559590075L 34.00255496642218-29.667794305943797Q 34.087760905198074-29.338643963399058  34.51701854095576-26.722742993915745L 34.51701854095576-26.722742993915745Q 35.492323699081645-20.28161888018117  37.12877893498333-13.959996124836625Q 38.76523417088501-7.6383733694920775  41.36727259254252-1.5770372088573517L 41.36727259254252-1.5770372088573517Q 39.98304289627584-0.6195884384401236  38.30824850626879-0.18604057349220504Q 36.63345411626174 0.24750729145571349  35.18742986697982-0.390469095637636Q 33.7292186682473-1.0356203181359502  33.23051332070605-2.9621179112654525Q 32.731807973164806-4.888615504394955  31.933438070197102-9.888076025094698Q 31.1350681672294-14.887536545794442  29.937172910321276-19.51500312627636Q 28.741783710435975-24.13278881433049  27.24209932347743-28.010706649910915L 27.24209932347743-28.010706649910915Q 21.690176476595298-26.273941639246495  18.870017186194843-24.15972746448368L 18.870017186194843-24.15972746448368Q 18.032859152872987-25.079274324216605  17.689529340746603-26.405556586823348Q 17.346199528620215-27.731838849430094  18.122901138052388-29.12080775113577Q 18.909283639912342-30.512282709864266  20.535673567780464-30.93330028969808ZM 60.164037939521265-8.152221029958795L 60.164037939521265-8.152221029958795Q 59.012906061206714-6.9893816606871795  57.43903537363419-6.271167863270293Q 55.86516468606166-5.5529540658534025  54.25311211359017-6.0264374378825Q 52.63690801627812-6.509018328336865  51.83981524689059-8.255741865989608Q 51.04272247750306-10.002465403642354  49.216822323811016-15.159886137763953Q 47.39507369495954-20.308209353460285  46.03752507209641-23.283097878525115L 46.03752507209641-23.283097878525115Q 42.55024420602597-30.925013355755876  39.60129919803937-34.95439585681865L 39.60129919803937-34.95439585681865Q 40.76152859477919-36.121386750930824  42.32630176392644-36.83544902350715Q 43.90017245149896-37.55366282092404  45.51222502397046-37.080179448894945Q 47.137526639707794-36.60175008328114  47.80592213903796-35.137049616811915Q 48.47016611352757-33.68144666876796  48.97957309366771-32.2760981253153Q 49.48898007380786-30.870749581862647  50.1041224746899-29.04099554739871Q 50.7283623939972-27.215393037775318  51.24430430521038-25.86798666097072L 51.24430430521038-25.86798666097072Q 53.06990681483376-26.492226580278025  57.345740474712876-28.443443255341247Q 61.62157413459199-30.394659930404465  63.78368338909577-31.79900446490772L 63.78368338909577-31.79900446490772Q 60.616069935748456-38.740411023392326  57.38482123860376-43.38842477737377L 57.38482123860376-43.38842477737377Q 58.5450506353436-44.55541567148596  60.109823804490844-45.26947794406228Q 61.68369449206337-45.98769174147917  63.299898589375424-45.5051108510248Q 64.9210486802722-45.03577900383627  65.72644449934084-43.27086042933298Q 66.53599184325005-41.49684433640441  68.15016423007351-36.80339704197182Q 69.76848814173756-32.10085222911395  71.00149101938389-29.398889256807358L 71.00149101938389-29.398889256807358Q 74.90807589435089-20.838124418623853  78.18834842083815-16.058593881847997L 78.18834842083815-16.058593881847997Q 77.0372165425236-14.895754512576378  75.46334585495107-14.177540715159488Q 73.88947516737854-13.459326917742597  72.27327107006647-13.94190780819697Q 70.66121849759499-14.415391180226065  69.90564097661307-16.07113953362606Q 69.14591193079058-17.735985405451334  67.7770378717997-21.65101845903107Q 66.42141285607468-25.561105519026093  65.86395569645592-26.99948708008344L 65.86395569645592-26.99948708008344Q 61.446970191997764-25.35758603147956  52.97718053806701-21.49251640491816L 52.97718053806701-21.49251640491816L 53.49612114313702-20.355326601758822Q 57.024917257613055-12.622435940275313  60.164037939521265-8.152221029958795ZM 97.87123295640022-36.15191569961121L 97.87123295640022-36.15191569961121Q 99.04787007663566-35.37440358569654  99.92857815490665-34.00281571725054Q 100.81468935022222-32.62281319930487  100.50441330047838-31.033150098847624Q 100.19112571827945-29.4296692318461  98.81953784983345-28.548961153575128L 98.81953784983345-28.548961153575128Q 94.53648125450206-25.798774577870063  85.09320575877427-20.424442255452036L 85.09320575877427-20.424442255452036Q 84.34253031657974-20.001847437114165  83.5001782983719-20.055167953064302Q 82.66624092966374-20.113891586059058  82.25020091722898-20.76181959753355L 82.25020091722898-20.76181959753355Q 80.87240607085414-22.907555219949074  77.95392400539782-28.211531316577886Q 75.03003882289688-33.52392206270636  72.18799925743349-37.950027699532114Q 69.35136280901472-42.3677186868582  64.81655738512606-47.56079482412694L 64.81655738512606-47.56079482412694Q 67.96044835180207-49.234876539472104  73.0092380516033-52.476746766236424Q 78.05802775140454-55.718616993000744  82.1907698448425-59.40619652287206L 82.1907698448425-59.40619652287206Q 83.25154992255166-58.82762446449439  84.04040501106431-57.59908563754276Q 84.83466321662156-56.36213216109146  84.49436004919961-54.800724541588274Q 84.14865376473306-53.247731571584765  82.7602365972877-52.35621725922457Q 81.3634047803427-51.459299829819784  78.05795204332148-49.90727463565607Q 74.74408465680058-48.34984632444775  73.29676494285756-47.42051019277532L 73.29676494285756-47.42051019277532Q 75.58910537900498-43.12868362069631  77.85416310955391-39.50861269911473L 77.85416310955391-39.50861269911473Q 80.56049230224714-40.90173232814031  83.48879032813186-42.782017059663616Q 86.41708835401657-44.66230179118692  87.96662125792876-46.85755753476066L 87.96662125792876-46.85755753476066Q 89.0274013356379-46.27898547638299  89.81625642415055-45.05044664943136Q 90.61051462970781-43.81349317298005  90.29182393046429-42.2184269554782Q 89.97853634826537-40.61494608847667  88.66585102631704-39.77205982951796Q 87.35316570436873-38.92917357055923  84.445681285294-37.77529560784494Q 81.53819686621927-36.621417645130656  80.20868224527163-35.767725152082726L 80.20868224527163-35.767725152082726Q 84.30424496508388-29.38942083133383  86.5054380664531-26.57210847192379L 86.5054380664531-26.57210847192379Q 88.55188132472412-27.66035016873435  89.63737111018139-28.357352267488682L 89.63737111018139-28.357352267488682Q 94.97225889297137-31.782928473769648  97.87123295640022-36.15191569961121ZM 118.19947355403667-52.189654417585736L 118.19947355403667-52.189654417585736Q 119.44846719729036-51.53466214350009  120.46289938020466-50.2587987706158Q 121.4835550734436-48.97510801507576  121.33503892398306-47.36227108799683Q 121.18491890219141-45.735383267937536  119.90905552930711-44.72095108502323L 119.90905552930711-44.72095108502323Q 115.92491775753956-41.55318432978774  107.07124397724203-35.25466382159918L 107.07124397724203-35.25466382159918Q 106.36697151722595-34.758578846959864  105.52353398040478-34.72674927767177Q 104.68792382623937-34.70114321870831  104.20871353124303-35.30385168319967L 104.20871353124303-35.30385168319967Q 102.62171839846297-37.2998342604113  99.18364085127288-42.28273730778312Q 95.73933979375816-47.27346773781068  92.465773363004-51.39067101472567Q 89.19843044257449-55.50004690898492  84.16343075294948-60.2097473374067L 84.16343075294948-60.2097473374067Q 87.12263339514853-62.19209940563329  91.81906298858769-65.9262056004099Q 96.51549258202684-69.6603117951865  100.25562549646959-73.74555423380649L 100.25562549646959-73.74555423380649Q 101.36930578491256-73.27681527112732  102.2779382923082-72.13401740339046Q 103.19279431002846-70.98339215299787  103.01155673661368-69.39564124621722Q 102.82409565287428-67.81571772209233  101.53257751467851-66.78883851852876Q 100.23323199382702-65.75573580464058  97.10099097686994-63.87853943460049Q 93.96092257725712-61.995119554235785  92.61461276047123-60.92467577839983L 92.61461276047123-60.92467577839983Q 95.3277473443421-56.88567828770936  97.94604933967945-53.5122683420887L 97.94604933967945-53.5122683420887Q 100.49822808378042-55.17099787343465  103.22215724797513-57.33677946640508Q 105.94608641216985-59.5025610593755  107.26653015065969-61.842780778436726L 107.26653015065969-61.842780778436726Q 108.38021043910268-61.37404181575755  109.28884294649832-60.23124394802069Q 110.20369896421859-59.0806186976281  110.04735543210232-57.461558260224535Q 109.89723541031067-55.83467044016523  108.67616371601649-54.863802829523316Q 107.45509202172231-53.89293521888141  104.67867492693496-52.45196050856463Q 101.90225783214758-51.01098579824785  100.66553137254195-50.02767116695669L 100.66553137254195-50.02767116695669Q 105.38295219860973-44.09451511391189  107.85682550181632-41.51334272918403L 107.85682550181632-41.51334272918403Q 109.78319759145832-42.80225334371411  110.79292995404774-43.60508617559108L 110.79292995404774-43.60508617559108Q 115.75549055778178-47.55079172140502  118.19947355403667-52.189654417585736Z" />
</svg>